<svg width="78" height="490" viewBox="0 0 78 490" fill="none" xmlns="http://www.w3.org/2000/svg">
<path d="M76 489.455L0.577077 465.341L0.577077 442.968L76 418.185V432.787L54.6994 439.217V468.556L76 474.986V489.455ZM6.33762 453.954L44.1161 465.341V442.433L6.33762 453.954ZM77.3397 377.539C77.3397 380.843 76.8485 383.656 75.866 385.978C74.7943 388.3 73.544 390.221 72.115 391.739C70.686 393.168 69.391 394.24 68.23 394.954C67.0689 395.579 66.3991 395.937 66.2205 396.026V396.294L76 398.571V410.36H0.577077V396.294H32.9969V396.026C32.7289 395.937 31.9698 395.579 30.7195 394.954C29.4691 394.329 28.0848 393.347 26.5665 392.007C25.0482 390.578 23.7532 388.702 22.6815 386.38C21.5204 383.969 20.9399 381.022 20.9399 377.539C20.9399 369.501 23.5299 363.695 28.71 360.123C33.89 356.55 40.8116 354.764 49.4747 354.764C57.8699 354.764 64.6129 356.55 69.7036 360.123C74.7943 363.606 77.3397 369.411 77.3397 377.539ZM65.8186 381.959C65.8186 378.298 65.0594 375.484 63.5412 373.52C61.9336 371.465 59.8794 370.081 57.3787 369.367C54.7887 368.563 52.1094 368.161 49.3407 368.161C46.5721 368.161 43.9821 368.563 41.5707 369.367C39.07 370.17 37.0605 371.644 35.5422 373.787C33.9346 375.842 33.1308 378.7 33.1308 382.361C33.1308 387.363 34.6938 390.935 37.8197 393.079C40.8562 395.133 44.6966 396.16 49.3407 396.16C54.1635 396.16 58.1379 395.088 61.2637 392.945C64.3003 390.712 65.8186 387.05 65.8186 381.959ZM77.3397 318.976C77.3397 325.228 76.134 330.408 73.7226 334.517C71.3112 338.625 68.0067 341.706 63.8091 343.76C59.5222 345.814 54.6547 346.841 49.2068 346.841C40.9902 346.931 34.2472 344.653 28.9779 340.009C23.6192 335.276 20.9399 328.265 20.9399 318.976C20.9399 309.956 23.5299 303.124 28.71 298.48C33.89 293.746 40.7223 291.379 49.2068 291.379C54.4761 291.379 59.2542 292.362 63.5412 294.327C67.8281 296.292 71.2219 299.328 73.7226 303.436C76.134 307.545 77.3397 312.725 77.3397 318.976ZM65.8186 318.976C65.8186 315.047 64.9701 312.055 63.2732 310.001C61.5763 307.857 59.4329 306.428 56.8428 305.714C54.1635 304.999 51.4842 304.642 48.8049 304.642C46.0362 304.642 43.3123 304.999 40.6329 305.714C37.9536 306.428 35.7655 307.857 34.0686 310.001C32.3717 312.055 31.5232 315.047 31.5232 318.976C31.5232 322.995 32.4164 326.077 34.2026 328.22C35.8995 330.274 38.0876 331.703 40.7669 332.507C43.3569 333.222 46.0362 333.579 48.8049 333.579C51.4842 333.579 54.1635 333.222 56.8428 332.507C59.4329 331.703 61.5763 330.274 63.2732 328.22C64.9701 326.077 65.8186 322.995 65.8186 318.976ZM77.3397 262.62C77.3397 267.442 76.4019 271.193 74.5264 273.873C72.6508 276.552 70.2395 278.517 67.2922 279.767C64.3449 280.928 61.2637 281.643 58.0485 281.911C54.744 282.179 51.7521 282.313 49.0728 282.313H20.9399V269.05H49.0728C51.8414 269.05 54.4761 268.782 56.9768 268.246C59.4775 267.71 61.487 266.594 63.0053 264.897C64.5236 263.111 65.2827 260.432 65.2827 256.859C65.2827 253.376 64.5236 250.741 63.0053 248.955C61.3977 247.169 59.3882 245.963 56.9768 245.338C54.5654 244.713 52.0647 244.356 49.4747 244.266L20.9399 244.132V230.2H76V241.855L65.5506 244.132V244.4C66.0865 244.579 66.9796 245.025 68.23 245.74C69.4803 246.454 70.82 247.526 72.2489 248.955C73.6779 250.295 74.8836 252.081 75.866 254.314C76.8485 256.547 77.3397 259.315 77.3397 262.62ZM76 201.941C76 206.318 74.9283 209.622 72.7848 211.855C70.6414 213.998 67.1582 215.07 62.3355 215.07H30.5855V223.376H20.9399C20.9399 220.786 20.672 218.776 20.1361 217.347C19.6003 215.919 18.3499 214.891 16.3851 214.266C14.4202 213.641 11.2497 213.328 6.87348 213.328V202.343H20.9399L20.9399 189.75H30.5855L30.5855 202.343H65.2827V189.483H76V201.941ZM76 147.221H0.577077L0.577077 123.376L70.1055 105.692V105.424L0.577077 87.8745L0.577077 64.1625H76V78.3629L6.73952 77.4251V77.5591L76 95.6445V115.739L6.73952 133.557V133.825L76 133.021L76 147.221ZM77.3397 25.9319C77.3397 32.273 76 37.453 73.3207 41.472C70.552 45.4016 67.0689 48.3489 62.8713 50.3137C58.5844 52.1893 54.0742 53.1717 49.3407 53.261C43.8035 53.3503 38.8914 52.3232 34.6045 50.1798C30.2282 47.947 26.8344 44.8211 24.423 40.8021C21.9223 36.6938 20.672 31.8711 20.672 26.3338C20.672 21.4217 21.7437 17.0455 23.8872 13.2051C26.0306 9.27544 29.0672 6.14957 32.9969 3.82749C36.8372 1.50541 41.3921 0.299713 46.6614 0.210401C46.84 0.210401 47.3313 0.210401 48.135 0.210401C48.9388 0.210401 49.6087 0.210401 50.1445 0.210401V40.2663C55.2353 40.2663 59.1649 39.0159 61.9336 36.5152C64.6129 34.0145 65.9525 30.5761 65.9525 26.1998C65.9525 22.806 65.1041 19.9927 63.4072 17.76C61.7103 15.4379 59.4775 14.0536 56.7089 13.607V0.344369C62.5141 0.969545 67.4262 3.47024 71.4452 7.84647C75.3748 12.2227 77.3397 18.2512 77.3397 25.9319ZM43.9821 39.8644V13.8749C43.3569 13.9643 42.3745 14.1875 41.0348 14.5448C39.6952 14.8127 38.3109 15.3932 36.8819 16.2863C35.4529 17.0901 34.2472 18.3405 33.2648 20.0374C32.2824 21.7343 31.7912 23.9224 31.7912 26.6017C31.7912 30.1742 32.5503 32.8981 34.0686 34.7737C35.4976 36.5599 37.1945 37.8549 39.1593 38.6587C41.0348 39.3732 42.6424 39.7751 43.9821 39.8644Z" fill="#F63C12"/>
</svg>
