<svg width="680" height="2078" viewBox="0 0 680 2078" fill="none" xmlns="http://www.w3.org/2000/svg">
<path opacity="0.2" d="M-11.6007 2554.26L-12.5652 2554.26L-12.5652 2555.22L-11.6007 2555.22L-11.6007 2554.26ZM-11.6007 2428.75L-11.6007 2427.79L-12.5652 2427.79L-12.5652 2428.75L-11.6007 2428.75ZM655 2428.75L655.965 2428.75L655.965 2427.79L655 2427.79L655 2428.75ZM655 2658.45L655.337 2659.35L655.965 2659.12L655.965 2658.45L655 2658.45ZM41.6801 2886.97L41.3433 2886.06L40.7156 2886.3L40.7156 2886.97L41.6801 2886.97ZM41.6801 2889.33L40.7156 2889.33L40.7156 2890.3L41.6801 2890.3L41.6801 2889.33ZM655 2889.33L655.965 2889.33L655.965 2888.37L655 2888.37L655 2889.33ZM655 3013.65L655 3014.62L655.965 3014.62L655.965 3013.65L655 3013.65ZM-11.6007 3013.66L-12.5652 3013.66L-12.5652 3014.62L-11.6007 3014.62L-11.6007 3013.66ZM-11.6007 2800.53L-11.9571 2799.64L-12.5652 2799.88L-12.5652 2800.53L-11.6007 2800.53ZM601.72 2556.62L602.076 2557.52L602.684 2557.28L602.684 2556.62L601.72 2556.62ZM601.72 2554.26L602.684 2554.26L602.684 2553.29L601.72 2553.29L601.72 2554.26ZM-10.6362 2554.26L-10.6362 2428.75L-12.5652 2428.75L-12.5652 2554.26L-10.6362 2554.26ZM-11.6007 2429.72L655 2429.72L655 2427.79L-11.6007 2427.79L-11.6007 2429.72ZM654.036 2428.75L654.036 2658.45L655.965 2658.45L655.965 2428.75L654.036 2428.75ZM654.663 2657.55L41.3433 2886.06L42.0168 2887.87L655.337 2659.35L654.663 2657.55ZM40.7156 2886.97L40.7156 2889.33L42.6446 2889.33L42.6446 2886.97L40.7156 2886.97ZM41.6801 2890.3L655 2890.3L655 2888.37L41.6801 2888.37L41.6801 2890.3ZM654.036 2889.33L654.036 3013.65L655.965 3013.65L655.965 2889.33L654.036 2889.33ZM655 3012.69L-11.6007 3012.69L-11.6007 3014.62L655 3014.62L655 3012.69ZM-10.6362 3013.66L-10.6362 2800.53L-12.5652 2800.53L-12.5652 3013.66L-10.6362 3013.66ZM-11.2442 2801.43L602.076 2557.52L601.363 2555.73L-11.9571 2799.64L-11.2442 2801.43ZM602.684 2556.62L602.684 2554.26L600.755 2554.26L600.755 2556.62L602.684 2556.62ZM601.72 2553.29L-11.6007 2553.29L-11.6007 2555.22L601.72 2555.22L601.72 2553.29ZM578.039 2254.17L578.684 2254.89L578.689 2254.89L578.039 2254.17ZM141.137 2302.72L141.553 2301.85L141.547 2301.85L141.137 2302.72ZM20.3677 2192.6L21.2018 2192.12L21.1994 2192.12L20.3677 2192.6ZM71.2804 1760.44L71.9206 1761.16L71.9251 1761.16L71.2804 1760.44ZM505.814 1714.26L506.235 1713.39L506.23 1713.39L505.814 1714.26ZM627.768 1825.56L628.596 1825.07L627.768 1825.56ZM489.238 1849.24L488.626 1849.99L488.634 1849.99L489.238 1849.24ZM203.89 1818.46L204.282 1819.34L204.289 1819.33L203.89 1818.46ZM121.009 1889.5L121.818 1890.02L121.822 1890.02L121.827 1890.01L121.009 1889.5ZM154.162 2167.74L154.787 2167.01L154.162 2167.74ZM441.877 2199.71L442.253 2200.6L442.265 2200.59L442.276 2200.59L441.877 2199.71ZM524.758 2128.67L525.567 2129.19L524.758 2128.67ZM-67.2494 1972.38L-66.2849 1972.38L-66.2849 1971.95L-66.6063 1971.66L-67.2494 1972.38ZM-67.2494 2026.84L-67.2494 2027.81L-66.2849 2027.81L-66.2849 2026.84L-67.2494 2026.84ZM-82.6416 2026.84L-83.0374 2027.72L-82.8487 2027.81L-82.6416 2027.81L-82.6416 2026.84ZM-201.043 1973.56L-202.008 1973.56L-202.008 1974.19L-201.439 1974.44L-201.043 1973.56ZM-201.043 1871.74L-201.043 1870.77L-202.008 1870.77L-202.008 1871.74L-201.043 1871.74ZM-179.731 1871.74L-179.088 1871.02L-179.362 1870.77L-179.731 1870.77L-179.731 1871.74ZM670.612 2007.9C670.612 2115.06 639.496 2196.86 577.389 2253.46L578.689 2254.89C641.299 2197.82 672.541 2115.44 672.541 2007.9L670.612 2007.9ZM577.394 2253.46C514.465 2310.09 429.862 2338.46 323.476 2338.46L323.476 2340.39C430.213 2340.39 515.318 2311.92 578.684 2254.89L577.394 2253.46ZM323.476 2338.46C253.335 2338.46 192.703 2326.24 141.553 2301.85L140.722 2303.59C192.186 2328.13 253.114 2340.39 323.476 2340.39L323.476 2338.46ZM141.547 2301.85C89.6251 2277.46 49.5179 2240.89 21.2018 2192.12L19.5337 2193.09C48.0504 2242.2 88.4563 2279.04 140.727 2303.59L141.547 2301.85ZM21.1994 2192.12C-7.89863 2142.57 -22.4763 2081.18 -22.4763 2007.9L-24.4053 2007.9C-24.4053 2081.43 -9.77733 2143.18 19.5361 2193.09L21.1994 2192.12ZM-22.4763 2007.9C-22.4763 1899.16 9.03553 1816.97 71.9206 1761.16L70.6402 1759.72C7.23026 1815.99 -24.4053 1898.78 -24.4053 2007.9L-22.4763 2007.9ZM71.9251 1761.16C134.063 1705.31 217.877 1677.34 323.476 1677.34L323.476 1675.41C217.53 1675.41 133.214 1703.48 70.6357 1759.72L71.9251 1761.16ZM323.476 1677.34C392.029 1677.34 452.663 1689.95 505.398 1715.13L506.23 1713.39C453.194 1688.06 392.268 1675.41 323.476 1675.41L323.476 1677.34ZM505.393 1715.13C557.324 1740.31 597.832 1777.28 626.94 1826.05L628.596 1825.07C599.292 1775.96 558.498 1738.73 506.235 1713.39L505.393 1715.13ZM626.94 1826.05C656.035 1874.81 670.612 1935.41 670.612 2007.9L672.541 2007.9C672.541 1935.15 657.912 1874.19 628.596 1825.07L626.94 1826.05ZM556.507 2009.08C556.507 1937.83 534.33 1884.24 489.842 1848.49L488.634 1849.99C532.553 1885.28 554.578 1938.25 554.578 2009.08L556.507 2009.08ZM489.85 1848.49C445.448 1812.02 389.967 1793.81 323.476 1793.81L323.476 1795.74C389.595 1795.74 444.622 1813.84 488.626 1849.99L489.85 1848.49ZM323.476 1793.81C278.37 1793.81 238.368 1801.72 203.491 1817.58L204.289 1819.33C238.875 1803.61 278.596 1795.74 323.476 1795.74L323.476 1793.81ZM203.498 1817.57C167.81 1833.44 140.031 1857.24 120.191 1888.99L121.827 1890.01C141.454 1858.6 168.929 1835.05 204.282 1819.34L203.498 1817.57ZM120.2 1888.97C99.5509 1920.74 89.2602 1960.8 89.2602 2009.08L91.1891 2009.08C91.1891 1961.07 101.421 1921.4 121.818 1890.02L120.2 1888.97ZM89.2602 2009.08C89.2602 2078.75 110.646 2131.94 153.536 2168.47L154.787 2167.01C112.428 2130.92 91.1891 2078.34 91.1891 2009.08L89.2602 2009.08ZM153.536 2168.47C196.376 2204.97 253.055 2223.17 323.476 2223.17L323.476 2221.24C253.393 2221.24 197.196 2203.13 154.787 2167.01L153.536 2168.47ZM323.476 2223.17C367.002 2223.17 406.599 2215.65 442.253 2200.6L441.502 2198.82C406.115 2213.76 366.777 2221.24 323.476 2221.24L323.476 2223.17ZM442.276 2200.59C477.173 2184.73 504.943 2160.92 525.567 2129.19L523.95 2128.14C503.528 2159.56 476.044 2183.12 441.478 2198.83L442.276 2200.59ZM525.567 2129.19C546.217 2097.43 556.507 2057.37 556.507 2009.08L554.578 2009.08C554.578 2057.1 544.346 2096.76 523.95 2128.14L525.567 2129.19ZM-68.2139 1972.38L-68.2139 2026.84L-66.2849 2026.84L-66.2849 1972.38L-68.2139 1972.38ZM-67.2494 2025.88L-82.6416 2025.88L-82.6416 2027.81L-67.2494 2027.81L-67.2494 2025.88ZM-82.2458 2025.96L-200.647 1972.68L-201.439 1974.44L-83.0374 2027.72L-82.2458 2025.96ZM-200.079 1973.56L-200.079 1871.74L-202.008 1871.74L-202.008 1973.56L-200.079 1973.56ZM-201.043 1872.7L-179.731 1872.7L-179.731 1870.77L-201.043 1870.77L-201.043 1872.7ZM-180.374 1872.46L-67.8926 1973.1L-66.6063 1971.66L-179.088 1871.02L-180.374 1872.46ZM655 1570.64L655 1571.6L655.965 1571.6L655.965 1570.64L655 1570.64ZM-11.6007 1570.64L-12.5652 1570.64L-12.5652 1571.6L-11.6007 1571.6L-11.6007 1570.64ZM-6.86466 1226.09L-5.90575 1226.19L-5.90546 1226.19L-6.86466 1226.09ZM14.4476 1139.65L13.5521 1139.3L14.4476 1139.65ZM66.5443 1072.17L67.1147 1072.94L67.123 1072.94L67.1312 1072.93L66.5443 1072.17ZM234.675 1060.32L234.256 1061.19L234.269 1061.2L234.283 1061.21L234.675 1060.32ZM287.955 1114.79L288.813 1114.35L288.808 1114.34L287.955 1114.79ZM311.636 1227.27L310.672 1227.32L310.717 1228.24L311.636 1228.24L311.636 1227.27ZM315.188 1227.27L315.188 1228.24L316.126 1228.24L316.152 1227.3L315.188 1227.27ZM340.052 1095.85L340.919 1096.27L340.923 1096.26L340.928 1096.25L340.052 1095.85ZM396.885 1031.91L396.453 1031.05L396.885 1031.91ZM576.855 1042.56L577.458 1041.81L577.452 1041.81L577.446 1041.8L576.855 1042.56ZM630.136 1115.97L631.041 1115.64L631.037 1115.63L631.033 1115.62L630.136 1115.97ZM651.448 1210.7L652.41 1210.62L652.409 1210.61L652.408 1210.6L651.448 1210.7ZM265.459 1452.23L265.459 1453.2L266.423 1453.2L266.423 1452.23L265.459 1452.23ZM260.723 1243.85L259.766 1243.97L259.767 1243.97L260.723 1243.85ZM238.227 1185.83L238.968 1185.21L238.958 1185.2L238.947 1185.19L238.227 1185.83ZM115.089 1187.01L115.81 1187.66L115.818 1187.65L115.827 1187.64L115.089 1187.01ZM91.4087 1243.85L92.3647 1243.97L91.4087 1243.85ZM86.6726 1452.23L85.7081 1452.23L85.7081 1453.2L86.6726 1453.2L86.6726 1452.23ZM557.911 1451.05L557.911 1452.01L558.875 1452.01L558.875 1451.05L557.911 1451.05ZM551.991 1224.9L551.037 1225.05L551.991 1224.9ZM525.942 1162.15L526.677 1161.53L526.668 1161.52L526.659 1161.51L525.942 1162.15ZM392.149 1163.33L392.864 1163.98L392.873 1163.97L392.881 1163.96L392.149 1163.33ZM363.732 1228.46L364.687 1228.6L363.732 1228.46ZM357.812 1451.05L356.848 1451.05L356.848 1452.01L357.812 1452.01L357.812 1451.05ZM655 1569.67L-11.6007 1569.67L-11.6007 1571.6L655 1571.6L655 1569.67ZM-10.6362 1570.64L-10.6362 1306.6L-12.5652 1306.6L-12.5652 1570.64L-10.6362 1570.64ZM-10.6362 1306.6C-10.6362 1282.17 -9.06012 1255.37 -5.90575 1226.19L-7.82357 1225.98C-10.984 1255.22 -12.5652 1282.09 -12.5652 1306.6L-10.6362 1306.6ZM-5.90546 1226.19C-2.75724 1196.28 4.32575 1167.56 15.3431 1140.01L13.5521 1139.3C2.46789 1167.01 -4.65731 1195.9 -7.82386 1225.99L-5.90546 1226.19ZM15.3431 1140.01C26.3279 1112.55 43.5819 1090.2 67.1147 1072.94L65.974 1071.39C42.1461 1088.86 24.669 1111.5 13.5521 1139.3L15.3431 1140.01ZM67.1312 1072.93C90.5871 1054.95 123.111 1045.9 164.818 1045.9L164.818 1043.97C122.854 1043.97 89.8622 1053.07 65.9575 1071.4L67.1312 1072.93ZM164.818 1045.9C189.942 1045.9 213.083 1051 234.256 1061.19L235.093 1059.46C213.641 1049.13 190.211 1043.97 164.818 1043.97L164.818 1045.9ZM234.283 1061.21C255.345 1070.57 272.965 1088.54 287.103 1115.24L288.808 1114.34C274.529 1087.37 256.629 1069.03 235.066 1059.44L234.283 1061.21ZM287.098 1115.23C300.425 1141.1 308.307 1178.44 310.672 1227.32L312.599 1227.22C310.228 1178.23 302.323 1140.57 288.813 1114.35L287.098 1115.23ZM311.636 1228.24L315.188 1228.24L315.188 1226.31L311.636 1226.31L311.636 1228.24ZM316.152 1227.3C317.729 1170.52 326.009 1126.87 340.919 1096.27L339.185 1095.42C324.1 1126.39 315.804 1170.35 314.224 1227.24L316.152 1227.3ZM340.928 1096.25C355.07 1065.61 373.881 1044.49 397.316 1032.77L396.453 1031.05C372.528 1043.01 353.45 1064.51 339.176 1095.44L340.928 1096.25ZM397.316 1032.77C420.849 1021 447.142 1015.11 476.214 1015.11L476.214 1013.18C446.874 1013.18 420.281 1019.13 396.453 1031.05L397.316 1032.77ZM476.214 1015.11C518.704 1015.11 552.018 1024.56 576.265 1043.33L577.446 1041.8C552.753 1022.69 518.973 1013.18 476.214 1013.18L476.214 1015.11ZM576.253 1043.32C599.793 1062.15 617.456 1086.48 629.239 1116.33L631.033 1115.62C619.135 1085.48 601.278 1060.87 577.458 1041.81L576.253 1043.32ZM629.231 1116.31C640.252 1146.22 647.338 1177.71 650.488 1210.79L652.408 1210.6C649.243 1177.37 642.122 1145.72 631.041 1115.64L629.231 1116.31ZM650.486 1210.77C652.853 1243.11 654.036 1273.08 654.036 1300.68L655.965 1300.68C655.965 1273.03 654.78 1243.01 652.41 1210.62L650.486 1210.77ZM654.036 1300.68L654.036 1570.64L655.965 1570.64L655.965 1300.68L654.036 1300.68ZM266.423 1452.23L266.423 1320.81L264.494 1320.81L264.494 1452.23L266.423 1452.23ZM266.423 1320.81C266.423 1293.15 264.843 1267.45 261.679 1243.72L259.767 1243.97C262.918 1267.61 264.494 1293.22 264.494 1320.81L266.423 1320.81ZM261.679 1243.72C258.506 1219.13 250.958 1199.6 238.968 1185.21L237.486 1186.45C249.175 1200.48 256.625 1219.62 259.766 1243.97L261.679 1243.72ZM238.947 1185.19C226.065 1170.7 205.617 1163.55 177.842 1163.55L177.842 1165.48C205.321 1165.48 225.13 1172.55 237.506 1186.47L238.947 1185.19ZM177.842 1163.55C148.493 1163.55 127.239 1171.09 114.351 1186.39L115.827 1187.64C128.198 1172.95 148.779 1165.48 177.842 1165.48L177.842 1163.55ZM114.368 1186.37C101.581 1200.76 93.6289 1219.9 90.4526 1243.72L92.3647 1243.97C95.5032 1220.44 103.337 1201.69 115.81 1187.66L114.368 1186.37ZM90.4526 1243.72C87.2888 1267.45 85.7081 1293.15 85.7081 1320.81L87.6371 1320.81C87.6371 1293.22 89.2137 1267.61 92.3647 1243.97L90.4526 1243.72ZM85.7081 1320.81L85.7081 1452.23L87.6371 1452.23L87.6371 1320.81L85.7081 1320.81ZM86.6726 1453.2L265.459 1453.2L265.459 1451.27L86.6726 1451.27L86.6726 1453.2ZM558.875 1451.05L558.875 1310.15L556.946 1310.15L556.946 1451.05L558.875 1451.05ZM558.875 1310.15C558.875 1279.33 556.899 1250.86 552.944 1224.76L551.037 1225.05C554.976 1251.04 556.946 1279.41 556.946 1310.15L558.875 1310.15ZM552.944 1224.76C548.978 1198.58 540.24 1177.48 526.677 1161.53L525.208 1162.77C538.483 1178.39 547.11 1199.13 551.037 1225.05L552.944 1224.76ZM526.659 1161.51C512.203 1145.44 489.79 1137.51 459.638 1137.51L459.638 1139.43C489.475 1139.43 511.266 1147.28 525.226 1162.8L526.659 1161.51ZM459.638 1137.51C428.691 1137.51 405.874 1145.84 391.416 1162.71L392.881 1163.96C406.84 1147.68 429.015 1139.43 459.638 1139.43L459.638 1137.51ZM391.433 1162.69C376.283 1179.43 366.747 1201.33 362.778 1228.31L364.687 1228.6C368.611 1201.91 378.02 1180.39 392.864 1163.98L391.433 1162.69ZM362.778 1228.31C358.823 1255.21 356.848 1284.86 356.848 1317.26L358.777 1317.26C358.777 1284.93 360.748 1255.38 364.687 1228.6L362.778 1228.31ZM356.848 1317.26L356.848 1451.05L358.777 1451.05L358.777 1317.26L356.848 1317.26ZM357.812 1452.01L557.911 1452.01L557.911 1450.09L357.812 1450.09L357.812 1452.01ZM655 906.912L655 907.876L655.965 907.876L655.965 906.912L655 906.912ZM-11.6007 906.912L-12.5652 906.912L-12.5652 907.876L-11.6007 907.876L-11.6007 906.912ZM32.2078 460.538L33.0325 461.038L33.0384 461.028L32.2078 460.538ZM316.372 427.385L316.968 426.627L316.959 426.62L316.372 427.385ZM385.045 478.298L385.747 478.959L385.767 478.938L385.785 478.916L385.045 478.298ZM486.87 436.858L486.985 437.815L486.87 436.858ZM540.151 428.57L540.34 429.515L540.368 429.509L540.396 429.502L540.151 428.57ZM572.119 407.257L572.94 407.763L572.949 407.749L572.956 407.736L572.119 407.257ZM568.567 356.344L568.567 355.38L567.17 355.38L567.665 356.686L568.567 356.344ZM638.424 356.344L639.162 355.723L638.873 355.38L638.424 355.38L638.424 356.344ZM663.288 409.625L662.341 409.807L662.344 409.825L662.348 409.842L663.288 409.625ZM659.736 470.01L660.644 470.337L659.736 470.01ZM618.296 519.739L618.81 520.555L618.817 520.551L618.823 520.546L618.296 519.739ZM446.613 545.787L446.789 546.735L446.795 546.734L446.613 545.787ZM399.253 575.387L400.043 575.941L400.052 575.927L400.061 575.913L399.253 575.387ZM379.124 648.796L380.085 648.888L380.086 648.876L380.086 648.865L379.124 648.796ZM379.124 786.142L378.161 786.194L378.211 787.107L379.124 787.107L379.124 786.142ZM655 786.142L655.965 786.142L655.965 785.178L655 785.178L655 786.142ZM291.507 786.142L291.507 787.107L292.472 787.107L292.472 786.142L291.507 786.142ZM286.771 570.651L287.728 570.532L287.726 570.517L287.724 570.502L286.771 570.651ZM260.723 515.003L260.082 515.724L260.085 515.726L260.723 515.003ZM119.825 518.555L120.507 519.237L120.507 519.237L119.825 518.555ZM92.5926 584.86L93.548 584.992L93.55 584.978L93.5515 584.963L92.5926 584.86ZM86.6726 786.142L85.7081 786.142L85.7081 787.107L86.6726 787.107L86.6726 786.142ZM655 905.947L-11.6007 905.948L-11.6007 907.876L655 907.876L655 905.947ZM-10.6363 906.912L-10.6363 661.821L-12.5653 661.821L-12.5652 906.912L-10.6363 906.912ZM-10.6363 661.821C-10.6363 575.873 3.95437 508.978 33.0325 461.038L31.3832 460.038C2.04983 508.398 -12.5653 575.692 -12.5653 661.821L-10.6363 661.821ZM33.0384 461.028C61.2293 413.26 111.367 389.278 183.762 389.278L183.762 387.348C110.918 387.348 60.0191 411.516 31.3772 460.048L33.0384 461.028ZM183.762 389.278C238.073 389.278 282.052 402.263 315.784 428.151L316.959 426.62C282.807 400.411 238.38 387.348 183.762 387.348L183.762 389.278ZM315.776 428.144C348.656 453.979 365.136 491.17 365.136 539.867L367.065 539.867C367.065 490.685 350.392 452.889 316.968 426.627L315.776 428.144ZM367.065 539.867C367.065 512.365 373.353 492.127 385.747 478.959L384.342 477.637C371.477 491.307 365.136 512.114 365.136 539.867L367.065 539.867ZM385.785 478.916C397.502 464.856 412.338 455.093 430.318 449.621L429.756 447.775C411.427 453.354 396.267 463.324 384.304 477.681L385.785 478.916ZM430.318 449.621C448.416 444.112 467.305 440.177 486.985 437.815L486.755 435.9C466.968 438.274 447.968 442.232 429.756 447.775L430.318 449.621ZM486.985 437.815C506.738 435.445 524.523 432.678 540.34 429.515L539.961 427.624C524.204 430.775 506.469 433.534 486.755 435.9L486.985 437.815ZM540.396 429.502C555.562 425.511 566.462 418.291 572.94 407.763L571.298 406.752C565.147 416.747 554.734 423.734 539.905 427.637L540.396 429.502ZM572.956 407.736C579.502 396.281 578.168 378.936 569.469 356.002L567.665 356.686C576.332 379.535 577.366 396.132 571.282 406.779L572.956 407.736ZM568.567 357.309L638.424 357.309L638.424 355.38L568.567 355.38L568.567 357.309ZM637.686 356.966C650.202 371.829 658.423 389.435 662.341 409.807L664.235 409.443C660.26 388.769 651.904 370.855 639.162 355.723L637.686 356.966ZM662.348 409.842C667.043 430.185 665.87 450.125 658.829 469.683L660.644 470.337C667.811 450.428 669.006 430.111 664.228 409.408L662.348 409.842ZM658.829 469.683C651.807 489.188 638.146 505.607 617.768 518.931L618.823 520.546C639.491 507.033 653.457 490.3 660.644 470.337L658.829 469.683ZM617.782 518.923C596.682 532.207 567.287 538.903 529.494 538.903L529.494 540.832C567.479 540.832 597.284 534.108 618.81 520.555L617.782 518.923ZM529.494 538.903C494.737 538.903 467.04 540.877 446.431 544.84L446.795 546.734C467.232 542.804 494.79 540.832 529.494 540.832L529.494 538.903ZM446.438 544.839C424.908 548.826 408.872 558.819 398.444 574.862L400.061 575.913C410.157 560.382 425.694 550.642 446.789 546.735L446.438 544.839ZM398.463 574.834C387.263 590.834 380.535 615.512 378.162 648.728L380.086 648.865C382.45 615.776 389.141 591.515 400.043 575.941L398.463 574.834ZM378.164 648.705C375 681.928 375.003 727.765 378.161 786.194L380.088 786.09C376.931 727.697 376.934 681.97 380.085 648.888L378.164 648.705ZM379.124 787.107L655 787.107L655 785.178L379.124 785.178L379.124 787.107ZM654.036 786.142L654.036 906.912L655.965 906.912L655.965 786.142L654.036 786.142ZM292.472 786.142L292.472 666.557L290.543 666.557L290.543 786.142L292.472 786.142ZM292.472 666.557C292.472 627.857 290.892 595.845 287.728 570.532L285.814 570.771C288.965 595.976 290.543 627.901 290.543 666.557L292.472 666.557ZM287.724 570.502C283.757 545.115 275.008 526.321 261.361 514.28L260.085 515.726C273.275 527.365 281.892 545.67 285.818 570.8L287.724 570.502ZM261.364 514.282C246.898 501.423 224.117 495.094 193.234 495.094L193.234 497.023C223.92 497.023 246.132 503.323 260.082 515.724L261.364 514.282ZM193.234 495.094C159.184 495.094 134.404 502.611 119.143 517.873L120.507 519.237C135.241 504.503 159.4 497.023 193.234 497.023L193.234 495.094ZM119.143 517.873C103.94 533.076 94.8057 555.415 91.6337 584.756L93.5515 584.963C96.6943 555.893 105.715 534.028 120.507 519.237L119.143 517.873ZM91.6373 584.727C87.6824 613.202 85.7081 648.375 85.7081 690.237L87.6371 690.237C87.6371 648.428 89.6094 613.35 93.548 584.992L91.6373 584.727ZM85.7081 690.237L85.7081 786.142L87.6371 786.142L87.6371 690.237L85.7081 690.237ZM86.6726 787.107L291.507 787.107L291.507 785.178L86.6726 785.178L86.6726 787.107ZM557.911 134.12L557.911 135.084L558.875 135.084L558.875 134.12L557.911 134.12ZM557.911 -234.109L557.911 -235.074L556.946 -235.074L556.946 -234.109L557.911 -234.109ZM655 -234.109L655.965 -234.109L655.965 -235.074L655 -235.074L655 -234.109ZM655 253.705L655 254.67L655.965 254.67L655.965 253.705L655 253.705ZM-11.6008 253.705L-12.5653 253.705L-12.5653 254.67L-11.6008 254.67L-11.6008 253.705ZM-11.6008 -222.269L-11.6008 -223.234L-12.5653 -223.234L-12.5653 -222.269L-11.6008 -222.269ZM92.5926 -222.269L93.5571 -222.269L93.5571 -223.234L92.5926 -223.234L92.5926 -222.269ZM92.5926 134.12L91.6281 134.12L91.6281 135.084L92.5926 135.084L92.5926 134.12ZM267.827 134.12L267.827 135.084L268.791 135.084L268.791 134.12L267.827 134.12ZM267.827 -139.388L267.827 -140.353L266.862 -140.353L266.862 -139.388L267.827 -139.388ZM367.284 -139.388L368.249 -139.388L368.249 -140.353L367.284 -140.353L367.284 -139.388ZM367.284 134.12L366.32 134.12L366.32 135.084L367.284 135.084L367.284 134.12ZM558.875 134.12L558.875 -234.109L556.946 -234.109L556.946 134.12L558.875 134.12ZM557.911 -233.145L655 -233.145L655 -235.074L557.911 -235.074L557.911 -233.145ZM654.036 -234.109L654.036 253.705L655.965 253.705L655.965 -234.109L654.036 -234.109ZM655 252.741L-11.6008 252.741L-11.6008 254.67L655 254.67L655 252.741ZM-10.6363 253.705L-10.6363 -222.269L-12.5653 -222.269L-12.5653 253.705L-10.6363 253.705ZM-11.6008 -221.305L92.5926 -221.305L92.5926 -223.234L-11.6008 -223.234L-11.6008 -221.305ZM91.6281 -222.269L91.6281 134.12L93.5571 134.12L93.5571 -222.269L91.6281 -222.269ZM92.5926 135.084L267.827 135.084L267.827 133.155L92.5926 133.155L92.5926 135.084ZM268.791 134.12L268.791 -139.388L266.862 -139.388L266.862 134.12L268.791 134.12ZM267.827 -138.424L367.284 -138.424L367.284 -140.353L267.827 -140.353L267.827 -138.424ZM366.32 -139.388L366.32 134.12L368.249 134.12L368.249 -139.388L366.32 -139.388ZM367.284 135.084L557.911 135.084L557.911 133.155L367.284 133.155L367.284 135.084ZM628.952 -449.572L629.8 -449.114L629.803 -449.119L628.952 -449.572ZM514.102 -338.275L514.539 -337.415L514.544 -337.418L514.102 -338.275ZM325.844 -301.57L325.864 -302.535L325.854 -302.535L325.844 -301.57ZM135.217 -345.379L134.745 -344.538L134.755 -344.532L135.217 -345.379ZM16.8156 -464.965L15.9638 -464.512L16.8156 -464.965ZM35.7598 -850.954L36.5153 -850.354L35.7598 -850.954ZM207.442 -950.411L208.397 -950.547L208.25 -951.577L207.234 -951.353L207.442 -950.411ZM224.018 -834.377L224.242 -833.439L225.098 -833.643L224.973 -834.514L224.018 -834.377ZM119.825 -760.969L120.672 -760.508L120.676 -760.516L119.825 -760.969ZM151.793 -473.253L151.162 -472.523L151.17 -472.516L151.793 -473.253ZM316.372 -419.972L316.36 -419.008L316.372 -419.008L316.372 -419.972ZM491.606 -480.357L492.281 -479.668L492.288 -479.675L491.606 -480.357ZM520.022 -777.545L520.859 -778.025L520.855 -778.032L520.851 -778.038L520.022 -777.545ZM414.645 -849.77L414.861 -850.71L413.68 -850.981L413.68 -849.77L414.645 -849.77ZM414.645 -702.952L414.645 -701.987L415.609 -701.987L415.609 -702.952L414.645 -702.952ZM325.844 -702.952L324.879 -702.952L324.879 -701.987L325.844 -701.987L325.844 -702.952ZM325.844 -963.435L325.844 -964.4L324.879 -964.4L324.879 -963.435L325.844 -963.435ZM655 -963.435L655.965 -963.435L655.965 -964.4L655 -964.4L655 -963.435ZM655 -881.738L655.22 -880.799L655.965 -880.974L655.965 -881.738L655 -881.738ZM538.967 -854.506L538.746 -855.445L538.002 -855.27L538.002 -854.506L538.967 -854.506ZM538.967 -852.138L538.002 -852.138L538.002 -851.485L538.608 -851.242L538.967 -852.138ZM598.167 -810.697L597.485 -810.015L597.492 -810.008L597.499 -810.001L598.167 -810.697ZM647.896 -734.92L648.784 -735.297L647.896 -734.92ZM667.06 -620.071C667.06 -555.476 654.063 -498.804 628.1 -450.026L629.803 -449.119C655.937 -498.22 668.989 -555.213 668.989 -620.071L667.06 -620.071ZM628.103 -450.031C602.151 -402.059 564.013 -365.095 513.66 -339.132L514.544 -337.418C565.228 -363.551 603.656 -400.786 629.8 -449.114L628.103 -450.031ZM513.666 -339.135C462.535 -313.176 399.949 -300.959 325.864 -302.535L325.823 -300.606C400.135 -299.025 463.055 -311.277 514.539 -337.415L513.666 -339.135ZM325.854 -302.535C250.983 -303.323 187.605 -317.902 135.679 -346.226L134.755 -344.532C187.022 -316.023 250.729 -301.397 325.834 -300.606L325.854 -302.535ZM135.689 -346.22C83.746 -375.34 44.4143 -415.07 17.6673 -465.417L15.9638 -464.512C42.8923 -413.823 82.4949 -373.83 134.746 -344.538L135.689 -346.22ZM17.6673 -465.417C-9.08534 -515.775 -22.4765 -574.027 -22.4765 -640.199L-24.4055 -640.199C-24.4055 -573.761 -10.9589 -515.19 15.9638 -464.512L17.6673 -465.417ZM-22.4765 -640.199C-22.4765 -730.847 -2.76903 -800.856 36.5153 -850.354L35.0044 -851.553C-4.6457 -801.594 -24.4055 -731.1 -24.4055 -640.199L-22.4765 -640.199ZM36.5153 -850.354C75.8176 -899.875 132.832 -932.93 207.65 -949.469L207.234 -951.353C132.077 -934.739 74.6365 -901.49 35.0044 -851.553L36.5153 -850.354ZM206.487 -950.275L223.064 -834.241L224.973 -834.514L208.397 -950.547L206.487 -950.275ZM223.795 -835.316C173.86 -823.427 138.865 -798.817 118.973 -761.421L120.676 -760.516C140.252 -797.318 174.719 -821.648 224.242 -833.439L223.795 -835.316ZM118.978 -761.429C99.1618 -724.968 89.26 -684.552 89.26 -640.199L91.189 -640.199C91.189 -684.253 101.021 -724.349 120.672 -760.508L118.978 -761.429ZM89.26 -640.199C89.26 -564.257 109.831 -508.291 151.162 -472.523L152.425 -473.982C111.664 -509.255 91.189 -564.587 91.189 -640.199L89.26 -640.199ZM151.17 -472.516C192.43 -437.604 247.527 -419.799 316.36 -419.008L316.383 -420.937C247.871 -421.724 193.248 -439.439 152.416 -473.989L151.17 -472.516ZM316.372 -419.008C392.318 -419.008 451.003 -439.184 492.281 -479.668L490.931 -481.045C450.117 -441.016 391.979 -420.937 316.372 -420.937L316.372 -419.008ZM492.288 -479.675C532.777 -520.164 552.955 -578.064 552.955 -653.223L551.026 -653.223C551.026 -578.407 530.948 -521.063 490.924 -481.039L492.288 -479.675ZM552.955 -653.223C552.955 -699.161 542.261 -740.77 520.859 -778.025L519.186 -777.064C540.408 -740.122 551.026 -698.849 551.026 -653.223L552.955 -653.223ZM520.851 -778.038C498.595 -815.397 463.227 -839.609 414.861 -850.71L414.429 -848.83C462.363 -837.828 497.247 -813.891 519.194 -777.051L520.851 -778.038ZM413.68 -849.77L413.68 -702.952L415.609 -702.952L415.609 -849.77L413.68 -849.77ZM414.645 -703.916L325.844 -703.916L325.844 -701.987L414.645 -701.987L414.645 -703.916ZM326.808 -702.952L326.808 -963.435L324.879 -963.435L324.879 -702.952L326.808 -702.952ZM325.844 -962.471L655 -962.471L655 -964.4L325.844 -964.4L325.844 -962.471ZM654.036 -963.435L654.036 -881.738L655.965 -881.738L655.965 -963.435L654.036 -963.435ZM654.78 -882.677L538.746 -855.445L539.187 -853.567L655.22 -880.799L654.78 -882.677ZM538.002 -854.506L538.002 -852.138L539.931 -852.138L539.931 -854.506L538.002 -854.506ZM538.608 -851.242C558.189 -843.41 577.817 -829.684 597.485 -810.015L598.849 -811.379C579.051 -831.178 559.211 -845.079 539.325 -853.033L538.608 -851.242ZM597.499 -810.001C617.118 -791.167 633.628 -766.026 647.008 -734.543L648.784 -735.297C635.326 -766.962 618.683 -792.339 598.835 -811.393L597.499 -810.001ZM647.008 -734.543C660.363 -703.119 667.06 -664.972 667.06 -620.071L668.989 -620.071C668.989 -665.155 662.266 -703.574 648.784 -735.297L647.008 -734.543ZM655 -1036.9L654.706 -1035.98L655.965 -1035.58L655.965 -1036.9L655 -1036.9ZM-11.6008 -1250.02L-12.5653 -1250.02L-12.5653 -1249.32L-11.8946 -1249.1L-11.6008 -1250.02ZM-11.6008 -1447.75L-11.9019 -1448.67L-12.5653 -1448.45L-12.5653 -1447.75L-11.6008 -1447.75ZM655 -1666.8L655.965 -1666.8L655.965 -1668.13L654.699 -1667.71L655 -1666.8ZM655 -1537.74L655.279 -1536.81L655.965 -1537.02L655.965 -1537.74L655 -1537.74ZM466.741 -1480.91L466.463 -1481.83L465.777 -1481.62L465.777 -1480.91L466.741 -1480.91ZM466.742 -1221.61L465.777 -1221.61L465.777 -1220.89L466.463 -1220.68L466.742 -1221.61ZM655 -1164.77L655.965 -1164.77L655.965 -1165.49L655.279 -1165.7L655 -1164.77ZM39.3118 -1350.66L39.0305 -1351.59L35.9877 -1350.66L39.0335 -1349.74L39.3118 -1350.66ZM373.204 -1250.02L372.926 -1249.1L374.169 -1248.72L374.169 -1250.02L373.204 -1250.02ZM373.204 -1452.49L374.169 -1452.49L374.169 -1453.79L372.923 -1453.41L373.204 -1452.49ZM655.294 -1037.82L-11.3071 -1250.94L-11.8946 -1249.1L654.706 -1035.98L655.294 -1037.82ZM-10.6363 -1250.02L-10.6364 -1447.75L-12.5653 -1447.75L-12.5653 -1250.02L-10.6363 -1250.02ZM-11.2998 -1446.84L655.301 -1665.88L654.699 -1667.71L-11.9019 -1448.67L-11.2998 -1446.84ZM654.036 -1666.8L654.036 -1537.74L655.965 -1537.74L655.965 -1666.8L654.036 -1666.8ZM654.721 -1538.66L466.463 -1481.83L467.02 -1479.98L655.279 -1536.81L654.721 -1538.66ZM465.777 -1480.91L465.777 -1221.61L467.706 -1221.61L467.706 -1480.91L465.777 -1480.91ZM466.463 -1220.68L654.721 -1163.85L655.279 -1165.7L467.02 -1222.53L466.463 -1220.68ZM654.036 -1164.77L654.036 -1036.9L655.965 -1036.9L655.965 -1164.77L654.036 -1164.77ZM39.0335 -1349.74L372.926 -1249.1L373.483 -1250.95L39.5902 -1351.59L39.0335 -1349.74ZM374.169 -1250.02L374.169 -1452.49L372.24 -1452.49L372.24 -1250.02L374.169 -1250.02ZM372.923 -1453.41L39.0305 -1351.59L39.5932 -1349.74L373.486 -1451.57L372.923 -1453.41Z" fill="white" fill-opacity="0.35"/>
</svg>
