<svg width="178" height="178" viewBox="0 0 178 178" fill="none" xmlns="http://www.w3.org/2000/svg">
<path d="M88.6898 0L91.1261 51.5199L100.266 0.758751L95.9569 52.1558L111.644 3.02203L100.663 53.4169L122.63 6.75111L105.165 55.2816L133.035 11.8822L109.385 57.7178L142.681 18.3275L113.25 60.684L151.403 25.9766L116.696 64.1294L159.052 34.6989L119.662 67.995L165.497 44.3449L122.098 72.2147L170.629 54.7497L123.963 76.7163L174.358 65.7352L125.224 81.4228L176.621 77.1135L125.86 86.2536L177.38 88.6898L125.86 91.1261L176.621 100.266L125.224 95.9569L174.358 111.644L123.963 100.663L170.629 122.63L122.098 105.165L165.497 133.035L119.662 109.385L159.052 142.681L116.696 113.25L151.403 151.403L113.25 116.696L142.681 159.052L109.385 119.662L133.035 165.497L105.165 122.098L122.63 170.629L100.663 123.963L111.644 174.358L95.9569 125.224L100.266 176.621L91.1261 125.86L88.6898 177.38L86.2536 125.86L77.1135 176.621L81.4228 125.224L65.7352 174.358L76.7163 123.963L54.7497 170.629L72.2147 122.098L44.3449 165.497L67.995 119.662L34.6989 159.052L64.1294 116.696L25.9766 151.403L60.684 113.25L18.3275 142.681L57.7178 109.385L11.8822 133.035L55.2816 105.165L6.75111 122.63L53.4169 100.663L3.02203 111.644L52.1558 95.9569L0.758751 100.266L51.5199 91.1261L0 88.6898L51.5199 86.2536L0.758751 77.1135L52.1558 81.4228L3.02203 65.7352L53.4169 76.7163L6.75111 54.7497L55.2816 72.2147L11.8822 44.3449L57.7178 67.995L18.3275 34.6989L60.684 64.1294L25.9766 25.9766L64.1294 60.684L34.6989 18.3275L67.995 57.7178L44.3449 11.8822L72.2147 55.2816L54.7497 6.75111L76.7163 53.4169L65.7352 3.02203L81.4228 52.1558L77.1135 0.758751L86.2536 51.5199L88.6898 0Z" fill="#10629D"/>
<path d="M103.375 111.11L106.748 75.7306H71.484L74.9721 111.11L89.2693 115.019L103.375 111.11Z" fill="#1572B6"/>
<path d="M77.3593 82.0588L100.796 82.0168L98.6958 105.999L89.1195 108.771L79.4173 105.999L78.8713 98.6492H83.5334L83.7854 102.387L89.0775 103.815L94.3277 102.345L94.8317 96.2552H83.8694L83.4914 91.5511L95.3357 91.5091L95.7137 86.763H77.7373L77.3593 82.0588Z" fill="#DEECF1"/>
<path d="M77.9379 71.4195C77.2106 71.4195 76.5469 71.274 75.9469 70.9831C75.3468 70.6921 74.8695 70.2557 74.515 69.6739C74.1604 69.092 73.9876 68.3692 73.9967 67.5055C74.0058 66.66 74.1831 65.9372 74.5286 65.3372C74.8832 64.7281 75.3605 64.2644 75.9605 63.9462C76.5606 63.628 77.2333 63.4689 77.9788 63.4689C78.7516 63.4689 79.4017 63.6098 79.929 63.8916C80.4563 64.1644 80.8654 64.5281 81.1563 64.9826C81.4564 65.4281 81.6473 65.91 81.7291 66.4282H79.7653C79.7199 66.0827 79.588 65.8281 79.3698 65.6645C79.1607 65.5008 78.9244 65.3963 78.6607 65.3508C78.4061 65.2963 78.1788 65.269 77.9788 65.269C77.2697 65.269 76.7424 65.4554 76.3969 65.8281C76.0514 66.1918 75.8787 66.7009 75.8787 67.3555C75.8787 68.0738 76.0469 68.6329 76.3833 69.0329C76.7197 69.4329 77.247 69.633 77.9652 69.633C78.1743 69.633 78.4107 69.6057 78.6743 69.5511C78.938 69.4875 79.1744 69.3648 79.3835 69.1829C79.6017 69.0011 79.7335 68.7284 79.779 68.3647H81.7564C81.6655 68.9011 81.47 69.4057 81.17 69.8784C80.87 70.3421 80.4517 70.7149 79.9153 70.9967C79.388 71.2785 78.7289 71.4195 77.9379 71.4195ZM85.9485 71.4195C85.5121 71.4195 85.0848 71.3695 84.6666 71.2694C84.2484 71.1694 83.8711 71.0103 83.5347 70.7921C83.1983 70.5648 82.9255 70.2739 82.7164 69.9193C82.5164 69.5648 82.4164 69.1375 82.4164 68.6374H84.3256C84.3256 68.692 84.3438 68.7784 84.3802 68.8965C84.4256 69.0056 84.5075 69.1238 84.6257 69.2511C84.7529 69.3784 84.9302 69.4875 85.1575 69.5784C85.3939 69.6602 85.7075 69.7011 86.0985 69.7011C86.2712 69.7011 86.4485 69.6875 86.6303 69.6602C86.8122 69.633 86.9667 69.5784 87.094 69.4966C87.2213 69.4057 87.2849 69.2693 87.2849 69.0875C87.2849 68.8965 87.194 68.7465 87.0122 68.6374C86.8394 68.5283 86.6076 68.442 86.3167 68.3783C86.0348 68.3056 85.7212 68.2329 85.3757 68.1601C85.0393 68.0874 84.7029 67.9965 84.3665 67.8874C84.0302 67.7783 83.721 67.6328 83.4392 67.451C83.1665 67.2601 82.9528 67.0191 82.7982 66.7282C82.6528 66.4282 82.5937 66.0554 82.621 65.6099C82.6664 64.9372 82.9846 64.4144 83.5756 64.0417C84.1665 63.6598 84.9893 63.4689 86.0439 63.4689C86.6076 63.4689 87.1349 63.5689 87.6259 63.7689C88.1259 63.9689 88.5305 64.2735 88.8396 64.6826C89.1578 65.0917 89.3169 65.6099 89.3169 66.2373H87.4759C87.4759 65.9554 87.3804 65.7463 87.1895 65.6099C87.0076 65.4645 86.7849 65.369 86.5212 65.3236C86.2667 65.2781 86.0348 65.2554 85.8257 65.2554C85.4894 65.2554 85.2075 65.2963 84.9802 65.3781C84.762 65.4599 84.6529 65.619 84.6529 65.8554C84.6529 66.0645 84.7438 66.2282 84.9257 66.3464C85.1075 66.4555 85.3439 66.5464 85.6348 66.6191C85.9257 66.6828 86.244 66.7509 86.5894 66.8237C86.944 66.8873 87.294 66.9691 87.6395 67.0691C87.985 67.1692 88.2941 67.3101 88.5668 67.4919C88.8487 67.6646 89.0669 67.8965 89.2214 68.1874C89.3851 68.4783 89.4487 68.8511 89.4124 69.3057C89.3669 69.9694 89.0305 70.4876 88.4032 70.8603C87.785 71.2331 86.9667 71.4195 85.9485 71.4195ZM93.9125 71.4195C93.4761 71.4195 93.0488 71.3695 92.6306 71.2694C92.2123 71.1694 91.835 71.0103 91.4987 70.7921C91.1623 70.5648 90.8895 70.2739 90.6804 69.9193C90.4804 69.5648 90.3804 69.1375 90.3804 68.6374H92.2896C92.2896 68.692 92.3078 68.7784 92.3442 68.8965C92.3896 69.0056 92.4715 69.1238 92.5896 69.2511C92.7169 69.3784 92.8942 69.4875 93.1215 69.5784C93.3579 69.6602 93.6715 69.7011 94.0625 69.7011C94.2352 69.7011 94.4125 69.6875 94.5943 69.6602C94.7762 69.633 94.9307 69.5784 95.058 69.4966C95.1853 69.4057 95.2489 69.2693 95.2489 69.0875C95.2489 68.8965 95.158 68.7465 94.9762 68.6374C94.8034 68.5283 94.5716 68.442 94.2807 68.3783C93.9988 68.3056 93.6852 68.2329 93.3397 68.1601C93.0033 68.0874 92.6669 67.9965 92.3305 67.8874C91.9941 67.7783 91.685 67.6328 91.4032 67.451C91.1305 67.2601 90.9168 67.0191 90.7622 66.7282C90.6168 66.4282 90.5577 66.0554 90.585 65.6099C90.6304 64.9372 90.9486 64.4144 91.5396 64.0417C92.1305 63.6598 92.9533 63.4689 94.0079 63.4689C94.5716 63.4689 95.0989 63.5689 95.5899 63.7689C96.0899 63.9689 96.4945 64.2735 96.8036 64.6826C97.1218 65.0917 97.2809 65.6099 97.2809 66.2373H95.4399C95.4399 65.9554 95.3444 65.7463 95.1535 65.6099C94.9716 65.4645 94.7489 65.369 94.4852 65.3236C94.2307 65.2781 93.9988 65.2554 93.7897 65.2554C93.4533 65.2554 93.1715 65.2963 92.9442 65.3781C92.726 65.4599 92.6169 65.619 92.6169 65.8554C92.6169 66.0645 92.7078 66.2282 92.8897 66.3464C93.0715 66.4555 93.3079 66.5464 93.5988 66.6191C93.8897 66.6828 94.2079 66.7509 94.5534 66.8237C94.908 66.8873 95.258 66.9691 95.6035 67.0691C95.949 67.1692 96.2581 67.3101 96.5308 67.4919C96.8127 67.6646 97.0309 67.8965 97.1854 68.1874C97.3491 68.4783 97.4127 68.8511 97.3764 69.3057C97.3309 69.9694 96.9945 70.4876 96.3672 70.8603C95.749 71.2331 94.9307 71.4195 93.9125 71.4195ZM101.89 71.4195C100.845 71.4195 100.013 71.1694 99.3945 70.6694C98.7853 70.1603 98.4899 69.4011 98.508 68.392L100.335 68.1192C100.335 68.6193 100.467 69.0238 100.731 69.3329C101.004 69.633 101.404 69.783 101.931 69.783C102.313 69.783 102.608 69.6784 102.817 69.4693C103.036 69.2602 103.145 69.0147 103.145 68.7329C103.145 68.4238 103.017 68.201 102.763 68.0647C102.517 67.9192 102.199 67.8465 101.808 67.8465H101.085V66.8782H101.849C102.04 66.8782 102.231 66.86 102.422 66.8237C102.622 66.7873 102.786 66.7191 102.913 66.6191C103.049 66.51 103.117 66.3464 103.117 66.1282C103.117 65.81 102.995 65.5509 102.749 65.3508C102.513 65.1417 102.19 65.0372 101.781 65.0372C101.336 65.0372 100.985 65.1781 100.731 65.4599C100.476 65.7418 100.349 66.0554 100.349 66.4009L98.658 66.1009C98.658 65.9827 98.6853 65.8191 98.7399 65.6099C98.7944 65.4008 98.8899 65.1736 99.0263 64.9281C99.1626 64.6826 99.3445 64.4508 99.5718 64.2326C99.8081 64.0053 100.104 63.8235 100.458 63.6871C100.813 63.5416 101.236 63.4689 101.726 63.4689C102.727 63.4689 103.49 63.6689 104.018 64.0689C104.545 64.4599 104.808 64.9826 104.808 65.6372C104.808 66.0827 104.681 66.4827 104.427 66.8373C104.172 67.1919 103.763 67.3873 103.199 67.4237C103.736 67.451 104.158 67.6374 104.468 67.9828C104.777 68.3192 104.931 68.7193 104.931 69.1829C104.931 69.6557 104.799 70.0603 104.536 70.3967C104.281 70.733 103.927 70.9876 103.472 71.1603C103.017 71.3331 102.49 71.4195 101.89 71.4195Z" fill="white"/>
</svg>
