<svg width="164" height="164" viewBox="0 0 164 164" fill="none" xmlns="http://www.w3.org/2000/svg">
<path d="M81.6898 0L85.1101 16.4275L90.2287 0.447502L91.9131 17.1426L98.6741 1.78512L98.6041 18.5648L106.933 3.99818L105.11 20.6786L114.916 7.06245L111.359 23.4609L122.535 10.9444L117.283 26.8811L129.706 15.6014L122.817 30.9019L136.351 20.9825L127.901 35.4791L142.397 27.0287L132.478 40.5626L147.778 33.6737L136.498 46.0966L152.435 40.8449L139.919 52.0207L156.317 48.4636L142.701 58.2698L159.381 56.4463L144.815 64.7755L161.595 64.7056L146.237 71.4665L162.932 73.1509L146.952 78.2696L163.38 81.6898L146.952 85.1101L162.932 90.2287L146.237 91.9131L161.595 98.6741L144.815 98.6041L159.381 106.933L142.701 105.11L156.317 114.916L139.919 111.359L152.435 122.535L136.498 117.283L147.778 129.706L132.478 122.817L142.397 136.351L127.901 127.901L136.351 142.397L122.817 132.478L129.706 147.778L117.283 136.498L122.535 152.435L111.359 139.919L114.916 156.317L105.11 142.701L106.933 159.381L98.6041 144.815L98.6741 161.595L91.9131 146.237L90.2287 162.932L85.1101 146.952L81.6898 163.38L78.2696 146.952L73.1509 162.932L71.4665 146.237L64.7056 161.595L64.7755 144.815L56.4463 159.381L58.2698 142.701L48.4636 156.317L52.0207 139.919L40.8449 152.435L46.0966 136.498L33.6737 147.778L40.5626 132.478L27.0287 142.397L35.4791 127.901L20.9825 136.351L30.9019 122.817L15.6014 129.706L26.8811 117.283L10.9444 122.535L23.4609 111.359L7.06245 114.916L20.6786 105.11L3.99818 106.933L18.5648 98.6041L1.78512 98.6741L17.1426 91.9131L0.447502 90.2287L16.4275 85.1101L0 81.6898L16.4275 78.2696L0.447502 73.1509L17.1426 71.4665L1.78512 64.7056L18.5648 64.7755L3.99818 56.4463L20.6786 58.2698L7.06245 48.4636L23.4609 52.0207L10.9444 40.8449L26.8811 46.0966L15.6014 33.6737L30.9019 40.5626L20.9825 27.0287L35.4791 35.4791L27.0287 20.9825L40.5626 30.9019L33.6737 15.6014L46.0966 26.8811L40.8449 10.9444L52.0207 23.4609L48.4636 7.06245L58.2698 20.6786L56.4463 3.99818L64.7755 18.5648L64.7056 1.78512L71.4665 17.1426L73.1509 0.447502L78.2696 16.4275L81.6898 0Z" fill="#F63C12"/>
<path d="M104.023 115.603L109.419 59H53L58.5806 115.603L81.455 121.859L104.023 115.603Z" fill="#FA502E"/>
<path d="M98.6261 69.0573V78.5014H74.5865L75.0158 82.9168L98.5647 82.8555L96.541 107.508L81.8842 111.801L66.001 106.834V96.899H75.813V99.8426L81.8229 101.682L87.4648 99.7813L87.8941 92.4835L66.1236 92.5449L63.6706 69.0573H98.6261Z" fill="#DEECF1"/>
<path d="M57.6698 53H54.9723V42.152H57.6698V46.5259H61.8125V42.152H64.5101V53H61.8125V48.5683H57.6698V53ZM65.6609 44.4449V42.152H74.2353V44.4449H71.2872V53H68.5897V44.4449H65.6609ZM75.8821 53V42.152H80.5643L82.1635 51.8824H82.2021L83.7628 42.152H88.4257V53H85.6318L85.8245 43.2888H85.8052L84.1096 53H80.1982L78.5411 43.2888H78.5026L78.676 53H75.8821ZM90.6344 53V42.152H93.3319V50.7071H98.0141V53H90.6344ZM103.769 53.1927C102.78 53.1927 101.97 53.0193 101.341 52.6724C100.711 52.3128 100.236 51.876 99.915 51.3622C99.6067 50.8484 99.4205 50.3538 99.3562 49.8785L102.015 49.4739C102.041 49.6281 102.118 49.8272 102.246 50.0712C102.388 50.3024 102.587 50.508 102.844 50.6878C103.101 50.8676 103.435 50.9576 103.846 50.9576C104.36 50.9576 104.751 50.8034 105.021 50.4951C105.304 50.174 105.471 49.8143 105.522 49.4161C105.573 48.9665 105.458 48.549 105.175 48.1637C104.893 47.7655 104.449 47.5664 103.846 47.5664C103.499 47.5664 103.223 47.637 103.017 47.7783C102.825 47.9196 102.683 48.0673 102.593 48.2215C102.516 48.3628 102.471 48.4398 102.458 48.4527L99.626 48.0288L100.243 42.152H107.68V44.4449H102.073L101.746 47.3929C101.746 47.3929 101.797 47.3159 101.9 47.1617C102.002 46.9947 102.169 46.8085 102.401 46.6029C102.632 46.3974 102.934 46.2176 103.306 46.0634C103.679 45.8964 104.135 45.8129 104.674 45.8129C105.522 45.8129 106.216 45.9928 106.755 46.3525C107.295 46.6993 107.68 47.1489 107.911 47.7012C108.155 48.2536 108.252 48.8381 108.2 49.4546C108.149 50.0712 107.937 50.6685 107.565 51.2466C107.192 51.8118 106.685 52.2807 106.042 52.6532C105.4 53.0128 104.642 53.1927 103.769 53.1927Z" fill="white"/>
</svg>
