<svg width="132" height="132" viewBox="0 0 132 132" fill="none" xmlns="http://www.w3.org/2000/svg">
<path d="M65.539 0L67.1438 26.9021C67.2544 28.7571 69.9011 28.9764 70.3156 27.1649L76.3264 0.893867L73.4813 27.6932C73.2851 29.5411 75.8597 30.1931 76.5666 28.4745L86.8195 3.55109L79.6022 29.5166C79.1046 31.307 81.5367 32.3738 82.5169 30.7951L96.7322 7.89917L85.3395 32.3226C84.5539 34.0067 86.7773 35.4593 88.004 34.0634L105.794 13.8195L90.5367 36.0347C89.4847 37.5665 91.4386 39.3652 92.8783 38.1903L113.758 21.1507L95.052 40.5516C93.7622 41.8894 95.3934 43.9852 97.0069 43.0632L120.406 29.6926L98.7623 45.75C97.2699 46.8573 98.5339 49.193 100.277 48.5492L125.558 39.2123L101.566 51.4883C99.912 52.3348 100.774 54.8467 102.6 54.4986L129.073 49.4501L103.388 57.6099C101.617 58.1725 102.054 60.7921 103.912 60.7492L130.854 60.1269L104.177 63.9477C102.337 64.2111 102.337 66.8669 104.177 67.1304L130.854 70.9512L103.912 70.3289C102.054 70.286 101.617 72.9056 103.388 73.4682L129.073 81.6279L102.6 76.5795C100.774 76.2314 99.912 78.7433 101.566 79.5897L125.558 91.8658L100.277 82.5289C98.5339 81.8851 97.2699 84.2208 98.7623 85.328L120.406 101.385L97.0069 88.0149C95.3934 87.0929 93.7622 89.1887 95.052 90.5265L113.758 109.927L92.8783 92.8878C91.4386 91.7128 89.4847 93.5115 90.5367 95.0434L105.794 117.259L88.004 97.0147C86.7773 95.6188 84.5539 97.0713 85.3395 98.7555L96.7322 123.179L82.5169 100.283C81.5366 98.7042 79.1046 99.771 79.6022 101.561L86.8195 127.527L76.5666 102.604C75.8597 100.885 73.2851 101.537 73.4813 103.385L76.3264 130.184L70.3156 103.913C69.9011 102.102 67.2544 102.321 67.1438 104.176L65.539 131.078L63.9343 104.176C63.8236 102.321 61.1769 102.102 60.7625 103.913L54.7517 130.184L57.5967 103.385C57.7929 101.537 55.2184 100.885 54.5114 102.604L44.2585 127.527L51.4758 101.561C51.9735 99.771 49.5414 98.7042 48.5612 100.283L34.3459 123.179L45.7385 98.7555C46.5241 97.0713 44.3008 95.6188 43.0741 97.0147L25.2841 117.259L40.5413 95.0434C41.5934 93.5115 39.6395 91.7128 38.1997 92.8878L17.3204 109.927L36.026 90.5265C37.3159 89.1887 35.6847 87.0929 34.0712 88.0149L10.672 101.385L32.3157 85.328C33.8082 84.2208 32.5442 81.8851 30.8009 82.5289L5.52013 91.8658L29.5117 79.5897C31.1661 78.7432 30.3037 76.2314 28.4783 76.5795L2.00548 81.6279L27.6904 73.4682C29.4615 72.9056 29.0244 70.286 27.1665 70.3289L0.223846 70.9512L26.9015 67.1304C28.7411 66.8669 28.7411 64.2111 26.9015 63.9477L0.223846 60.1269L27.1665 60.7492C29.0244 60.7921 29.4615 58.1725 27.6904 57.6099L2.00548 49.4501L28.4783 54.4986C30.3037 54.8467 31.1661 52.3348 29.5117 51.4883L5.52013 39.2123L30.8009 48.5492C32.5442 49.193 33.8082 46.8573 32.3157 45.75L10.672 29.6926L34.0712 43.0632C35.6847 43.9852 37.3159 41.8894 36.026 40.5516L17.3204 21.1507L38.1998 38.1903C39.6395 39.3653 41.5934 37.5665 40.5413 36.0347L25.2841 13.8195L43.0741 34.0634C44.3008 35.4593 46.5241 34.0067 45.7385 32.3226L34.3459 7.89917L48.5612 30.7951C49.5414 32.3739 51.9735 31.307 51.4758 29.5166L44.2585 3.55109L54.5114 28.4745C55.2184 30.1931 57.7929 29.5411 57.5967 27.6931L54.7517 0.893867L60.7625 27.1649C61.1769 28.9764 63.8236 28.7571 63.9343 26.9021L65.539 0Z" fill="#DEB021"/>
<path d="M78.5446 86.7393L81.5647 55.0621H49.9905L53.1136 86.7393L65.9149 90.2399L78.5446 86.7393Z" fill="#F1BF22"/>
<path d="M75.4716 67.4017H71.0907L70.9975 64.885H60.7443V69.1727H75.4716L74.3531 82.1291L65.6844 84.6458L56.8294 82.1291L56.3633 75.5111H60.651L60.9307 78.8667L65.6844 80.1716L70.2518 78.8667L70.7178 73.3672H56.0837L57.2022 60.6906H74.5395L75.4716 67.4017Z" fill="#DEECF1"/>
<path d="M61.7316 50.4362C61.0336 50.4362 60.4706 50.3152 60.0425 50.0733C59.6144 49.822 59.3026 49.4823 59.1072 49.0542C58.921 48.6261 58.828 48.1329 58.828 47.5745H60.6707C60.6707 47.8909 60.7358 48.1701 60.8661 48.412C61.0057 48.6447 61.271 48.761 61.6618 48.761C61.9969 48.761 62.2435 48.6587 62.4017 48.4539C62.5599 48.2399 62.639 47.8211 62.639 47.1975V43.917H60.9918V42.4372H64.5934V46.8625C64.5934 47.4023 64.5562 47.8955 64.4817 48.3423C64.4166 48.7797 64.2863 49.1566 64.0908 49.473C63.8954 49.7801 63.6069 50.0174 63.2253 50.185C62.8531 50.3525 62.3552 50.4362 61.7316 50.4362ZM69.3651 50.4362C68.9183 50.4362 68.4809 50.385 68.0528 50.2827C67.6247 50.1803 67.2385 50.0174 66.8942 49.7941C66.5498 49.5614 66.2706 49.2636 66.0566 48.9006C65.8518 48.5377 65.7495 48.1003 65.7495 47.5884H67.7038C67.7038 47.6443 67.7224 47.7327 67.7597 47.8537C67.8062 47.9653 67.89 48.0863 68.011 48.2166C68.1412 48.3469 68.3227 48.4586 68.5554 48.5516C68.7974 48.6354 69.1184 48.6773 69.5186 48.6773C69.6954 48.6773 69.8769 48.6633 70.0631 48.6354C70.2492 48.6075 70.4074 48.5516 70.5377 48.4679C70.668 48.3748 70.7331 48.2352 70.7331 48.0491C70.7331 47.8537 70.6401 47.7001 70.4539 47.5884C70.2771 47.4767 70.0398 47.3883 69.742 47.3232C69.4535 47.2487 69.1324 47.1743 68.7787 47.0998C68.4344 47.0254 68.0901 46.9323 67.7457 46.8206C67.4014 46.7089 67.0849 46.56 66.7964 46.3739C66.5172 46.1785 66.2985 45.9318 66.1403 45.634C65.9914 45.3269 65.9309 44.9454 65.9589 44.4893C66.0054 43.8006 66.3311 43.2655 66.936 42.8839C67.541 42.4931 68.3832 42.2976 69.4628 42.2976C70.0398 42.2976 70.5796 42.4 71.0821 42.6047C71.594 42.8095 72.0081 43.1213 72.3245 43.5401C72.6503 43.9589 72.8131 44.4893 72.8131 45.1315H70.9286C70.9286 44.843 70.8308 44.6289 70.6354 44.4893C70.4493 44.3404 70.2213 44.2427 69.9514 44.1962C69.6908 44.1496 69.4535 44.1264 69.2394 44.1264C68.8951 44.1264 68.6066 44.1683 68.3739 44.252C68.1506 44.3358 68.0389 44.4986 68.0389 44.7406C68.0389 44.9547 68.1319 45.1222 68.3181 45.2432C68.5042 45.3548 68.7462 45.4479 69.044 45.5224C69.3418 45.5875 69.6675 45.6573 70.0212 45.7318C70.3841 45.7969 70.7424 45.8807 71.0961 45.983C71.4497 46.0854 71.7662 46.2297 72.0454 46.4158C72.3339 46.5926 72.5572 46.8299 72.7154 47.1277C72.8829 47.4256 72.9481 47.8071 72.9109 48.2725C72.8643 48.9518 72.52 49.4823 71.8778 49.8639C71.245 50.2454 70.4074 50.4362 69.3651 50.4362Z" fill="white"/>
</svg>
