<svg width="857" height="98" viewBox="0 0 857 98" fill="none" xmlns="http://www.w3.org/2000/svg">
<path d="M52.5393 50.2998C52.5393 57.092 51.1931 62.3851 48.5007 66.1789C45.8695 69.9116 42.1368 72.5122 37.3027 73.9808C32.4686 75.4494 26.7778 76.1837 20.2303 76.1837H6.00337V24.5077H20.2303C26.7778 24.5077 32.4686 25.4867 37.3027 27.4449C42.1368 29.3418 45.8695 32.1872 48.5007 35.981C51.1931 39.7749 52.5393 44.5478 52.5393 50.2998ZM15.2738 68.4736H22.8922C26.9308 68.4736 30.4187 68.0147 33.3559 67.0968C36.2931 66.1178 38.5571 64.3126 40.1481 61.6814C41.7391 59.0502 42.5346 55.2257 42.5346 50.208C42.5346 44.2725 40.76 39.8667 37.2109 36.9907C33.723 34.0535 28.9501 32.5849 22.8922 32.5849H15.2738V68.4736ZM70.0197 68.6572H98.5655V76.1837H60.7492V24.5077H97.6476V32.5849H70.0197V46.1694H91.2225V53.8795H70.0197V68.6572ZM141.979 24.5077H152.259L135.186 76.1837H119.583L102.51 24.5077H112.698L127.293 72.2369L141.979 24.5077ZM168.619 68.6572H197.165V76.1837H159.348V24.5077H196.247V32.5849H168.619V46.1694H189.822V53.8795H168.619V68.6572ZM206.249 76.1837V24.5077H215.612V68.1983H241.128V76.1837H206.249ZM318.142 76.1837H308.78V24.5077H329.524C335.276 24.5077 339.743 25.9457 342.924 28.8217C346.106 31.6977 347.697 36.0422 347.697 41.8554C347.697 46.9343 346.045 50.9117 342.741 53.7877C339.498 56.6637 335.092 58.1017 329.524 58.1017H318.142V76.1837ZM328.239 32.126H318.142V51.2177H328.239C331.543 51.2177 334.205 50.4222 336.224 48.8312C338.243 47.2402 339.253 44.8538 339.253 41.6718C339.253 38.4287 338.243 36.0422 336.224 34.5125C334.266 32.9215 331.604 32.126 328.239 32.126ZM354.586 76.1837V24.5077H370.924L383.04 72.1451H383.223L395.247 24.5077H411.494V76.1837H401.764L402.407 28.7299H402.315L389.924 76.1837H376.156L363.948 28.7299H363.764L364.315 76.1837H354.586ZM430.803 68.6572H459.349V76.1837H421.533V24.5077H458.431V32.5849H430.803V46.1694H452.006V53.8795H430.803V68.6572ZM503.313 24.5077H513.042V76.1837H495.236L477.521 28.6381H477.337V76.1837H467.699V24.5077H484.221L503.129 72.0533H503.313V24.5077ZM519.233 32.5849V24.5077H559.16V32.5849H543.832V76.1837H534.469V32.5849H519.233ZM606.303 77.1934C603.489 77.1934 600.704 76.8568 597.951 76.1837C595.258 75.5106 592.811 74.4704 590.608 73.063C588.405 71.6556 586.661 69.8198 585.376 67.5557C584.091 65.2305 583.418 62.4463 583.357 59.2031H592.811C592.811 59.5091 592.933 60.1822 593.178 61.2224C593.423 62.2015 593.973 63.2724 594.83 64.435C595.748 65.5976 597.155 66.6073 599.052 67.464C601.01 68.3206 603.642 68.749 606.946 68.749C610.556 68.749 613.218 68.0759 614.931 66.7297C616.706 65.3835 617.593 63.9455 617.593 62.4157C617.593 60.7023 616.981 59.3561 615.757 58.3771C614.595 57.3368 613.004 56.5107 610.985 55.8988C609.026 55.2257 606.854 54.6138 604.468 54.0631C602.142 53.5123 599.787 52.9004 597.4 52.2273C595.075 51.493 592.933 50.5446 590.975 49.3819C589.078 48.1581 587.579 46.5977 586.477 44.7008C585.376 42.8039 584.886 40.3868 585.009 37.4496C585.315 33.1051 587.395 29.7089 591.25 27.2613C595.105 24.8136 600.215 23.5898 606.579 23.5898C610.25 23.5898 613.646 24.2629 616.767 25.6091C619.949 26.8941 622.489 28.8523 624.385 31.4835C626.344 34.0535 627.323 37.3578 627.323 41.3965H618.236C618.236 39.4995 617.807 37.9698 616.951 36.8071C616.094 35.5833 614.993 34.6654 613.646 34.0535C612.361 33.3804 610.985 32.9521 609.516 32.7685C608.047 32.5237 606.732 32.4014 605.569 32.4014C602.51 32.4014 599.97 32.9215 597.951 33.9617C595.993 35.002 595.014 36.5318 595.014 38.5511C594.952 40.2644 595.534 41.6412 596.758 42.6815C597.981 43.7217 599.603 44.5478 601.622 45.1597C603.642 45.7716 605.844 46.3224 608.231 46.8119C610.617 47.3014 613.004 47.9133 615.39 48.6476C617.777 49.3207 619.949 50.2386 621.907 51.4012C623.865 52.5027 625.395 54.0325 626.497 55.9906C627.598 57.8875 628.057 60.3658 627.873 63.4253C627.629 67.7699 625.517 71.166 621.54 73.6137C617.563 76.0001 612.484 77.1934 606.303 77.1934ZM637.849 76.1837V24.5077H647.212V48.923L670.067 24.5077H682.274V25.6091L661.806 45.3433L683.376 75.0823V76.1837H672.637L655.014 51.8602L647.212 59.3867V76.1837H637.849ZM713.493 68.1983V76.1837H690.455V68.1983H697.431V32.5849H690.455V24.5077H713.493V32.5849H706.701V68.1983H713.493ZM725.419 76.1837V24.5077H734.781V68.1983H760.298V76.1837H725.419ZM768.534 76.1837V24.5077H777.896V68.1983H803.413V76.1837H768.534ZM831.199 77.1934C828.384 77.1934 825.6 76.8568 822.847 76.1837C820.154 75.5106 817.707 74.4704 815.504 73.063C813.301 71.6556 811.557 69.8198 810.272 67.5557C808.987 65.2305 808.314 62.4463 808.253 59.2031H817.707C817.707 59.5091 817.829 60.1822 818.074 61.2224C818.319 62.2015 818.869 63.2724 819.726 64.435C820.644 65.5976 822.051 66.6073 823.948 67.464C825.906 68.3206 828.537 68.749 831.842 68.749C835.452 68.749 838.114 68.0759 839.827 66.7297C841.602 65.3835 842.489 63.9455 842.489 62.4157C842.489 60.7023 841.877 59.3561 840.653 58.3771C839.491 57.3368 837.9 56.5107 835.88 55.8988C833.922 55.2257 831.75 54.6138 829.364 54.0631C827.038 53.5123 824.682 52.9004 822.296 52.2273C819.971 51.493 817.829 50.5446 815.871 49.3819C813.974 48.1581 812.475 46.5977 811.373 44.7008C810.272 42.8039 809.782 40.3868 809.905 37.4496C810.211 33.1051 812.291 29.7089 816.146 27.2613C820.001 24.8136 825.111 23.5898 831.475 23.5898C835.146 23.5898 838.542 24.2629 841.663 25.6091C844.845 26.8941 847.384 28.8523 849.281 31.4835C851.239 34.0535 852.218 37.3578 852.218 41.3965H843.132C843.132 39.4995 842.703 37.9698 841.847 36.8071C840.99 35.5833 839.888 34.6654 838.542 34.0535C837.257 33.3804 835.88 32.9521 834.412 32.7685C832.943 32.5237 831.628 32.4014 830.465 32.4014C827.405 32.4014 824.866 32.9215 822.847 33.9617C820.889 35.002 819.909 36.5318 819.909 38.5511C819.848 40.2644 820.43 41.6412 821.653 42.6815C822.877 43.7217 824.499 44.5478 826.518 45.1597C828.537 45.7716 830.74 46.3224 833.127 46.8119C835.513 47.3014 837.9 47.9133 840.286 48.6476C842.673 49.3207 844.845 50.2386 846.803 51.4012C848.761 52.5027 850.291 54.0325 851.392 55.9906C852.494 57.8875 852.953 60.3658 852.769 63.4253C852.524 67.7699 850.413 71.166 846.436 73.6137C842.458 76.0001 837.38 77.1934 831.199 77.1934Z" fill="white"/>
<path d="M269.564 0.69104L270.974 29.7279L276.598 1.20585L273.765 30.1387L283.481 2.73931L276.467 30.9514L290.069 5.25873L279.021 32.1488L296.219 8.71042L281.374 33.7054L301.801 13.0208L283.475 35.588L306.696 18.098L285.279 37.7564L310.8 23.8339L286.749 40.1644L314.025 30.1061L287.852 42.7607L316.302 36.781L288.566 45.4901L317.583 43.7163L288.874 48.2942L317.84 50.7643L288.771 51.1134L317.069 57.7746L288.259 53.8875L315.285 64.5979L287.348 56.5575L312.527 71.0888L286.058 59.0664L308.853 77.1089L284.417 61.3607L304.341 82.5299L282.459 63.3916L299.089 87.2363L280.226 65.1158L293.207 91.1277L277.766 66.4964L286.821 94.1212L275.131 67.5042L280.068 96.1531L272.377 68.1176L273.09 97.18L269.564 68.3235L266.037 97.18L266.75 68.1176L259.06 96.1531L263.997 67.5042L252.306 94.1212L261.362 66.4964L245.92 91.1277L258.902 65.1158L240.039 87.2363L256.669 63.3916L234.786 82.5299L254.711 61.3607L230.275 77.1089L253.069 59.0664L226.601 71.0888L251.779 56.5575L223.842 64.5979L250.868 53.8875L222.058 57.7746L250.356 51.1134L221.287 50.7643L250.253 48.2942L221.545 43.7163L250.562 45.4901L222.826 36.781L251.275 42.7607L225.103 30.1061L252.378 40.1644L228.328 23.8339L253.848 37.7564L232.431 18.098L255.653 35.588L237.326 13.0208L257.754 33.7054L242.908 8.71042L260.106 32.1488L249.059 5.25873L262.661 30.9514L255.646 2.73931L265.362 30.1387L262.53 1.20585L268.153 29.7279L269.564 0.69104Z" fill="#F63C12"/>
</svg>
