<svg width="24" height="26" viewBox="0 0 24 26" fill="none" xmlns="http://www.w3.org/2000/svg">
<path fill-rule="evenodd" clip-rule="evenodd" d="M17.415 15.0528C17.117 14.8968 15.656 14.1453 15.384 14.0407C15.112 13.9371 14.914 13.8858 14.715 14.1977C14.517 14.5075 13.948 15.2087 13.775 15.416C13.601 15.6242 13.428 15.6494 13.131 15.4944C12.834 15.3375 11.876 15.0099 10.741 13.9507C9.858 13.1259 9.261 12.1075 9.088 11.7956C8.915 11.4848 9.069 11.3163 9.218 11.1614C9.352 11.0222 9.515 10.7982 9.664 10.6171C9.813 10.435 9.862 10.3052 9.961 10.0969C10.061 9.88971 10.011 9.70864 9.936 9.55269C9.862 9.39674 9.268 7.86552 9.02 7.24277C8.779 6.63677 8.534 6.71945 8.352 6.70898C8.178 6.70061 7.98 6.69852 7.782 6.69852C7.584 6.69852 7.262 6.77597 6.99 7.08786C6.717 7.39872 5.95 8.15125 5.95 9.68248C5.95 11.2127 7.014 12.6916 7.163 12.8998C7.312 13.1071 9.258 16.2491 12.239 17.5961C12.949 17.9164 13.502 18.1079 13.933 18.2502C14.645 18.4878 15.293 18.4543 15.805 18.3737C16.375 18.2848 17.563 17.6212 17.811 16.8948C18.058 16.1685 18.058 15.5457 17.984 15.416C17.91 15.2862 17.712 15.2087 17.414 15.0528H17.415ZM11.993 22.801H11.989C10.2184 22.8014 8.48037 22.3032 6.957 21.3588L6.597 21.1348L2.855 22.1626L3.854 18.3444L3.619 17.953C2.62914 16.3039 2.10529 14.3952 2.108 12.4477C2.11 6.74352 6.544 2.10274 11.997 2.10274C14.637 2.10274 17.119 3.18077 18.985 5.13589C19.9054 6.09521 20.6349 7.23603 21.1313 8.49234C21.6277 9.74865 21.8811 11.0955 21.877 12.455C21.875 18.1592 17.441 22.801 11.993 22.801ZM20.405 3.65071C19.3032 2.48991 17.9922 1.56951 16.5481 0.942853C15.1039 0.316194 13.5553 -0.00426635 11.992 4.28886e-05C5.438 4.28886e-05 0.102 5.58385 0.1 12.4466C0.096963 14.6307 0.644374 16.777 1.687 18.6689L0 25.1193L6.304 23.3882C8.04787 24.3826 10.0021 24.9037 11.988 24.9037H11.993C18.547 24.9037 23.883 19.3199 23.885 12.4561C23.8898 10.8205 23.5848 9.20008 22.9874 7.68867C22.3901 6.17726 21.5124 4.80481 20.405 3.65071Z" fill="#BCBCBC"/>
</svg>
