<svg width="360" height="480" viewBox="0 0 360 480" fill="none" xmlns="http://www.w3.org/2000/svg">
<path d="M26.8155 51V7.96583H34.6121V44.35H55.8617V51H26.8155ZM59.3569 51L73.1156 7.96583H85.8806L100.022 51H91.6899L88.0209 38.8465H71.2811L67.6121 51H59.3569ZM79.6128 11.2526L73.1156 32.8079H86.1864L79.6128 11.2526ZM135.061 7.96583H143.163V51H128.334L113.582 11.4055H113.429V51H105.403V7.96583H119.162L134.908 47.5603H135.061V7.96583ZM191.123 29.4447C191.123 35.1011 190.002 39.5089 187.76 42.6683C185.569 45.7768 182.46 47.9425 178.435 49.1655C174.409 50.3885 169.67 51 164.217 51H152.37V7.96583H164.217C169.67 7.96583 174.409 8.78116 178.435 10.4118C182.46 11.9915 185.569 14.3611 187.76 17.5205C190.002 20.6799 191.123 24.6546 191.123 29.4447ZM160.09 44.5793H166.434C169.797 44.5793 172.702 44.1971 175.148 43.4327C177.594 42.6174 179.479 41.1141 180.804 38.9229C182.129 36.7317 182.792 33.5468 182.792 29.3683C182.792 24.4253 181.314 20.7563 178.358 18.3613C175.454 15.9153 171.479 14.6923 166.434 14.6923H160.09V44.5793ZM217.681 44.35V51H198.495V44.35H204.305V14.6923H198.495V7.96583H217.681V14.6923H212.025V44.35H217.681ZM256.659 7.96583H264.761V51H249.932L235.18 11.4055H235.027V51H227.001V7.96583H240.76L256.506 47.5603H256.659V7.96583ZM291.319 51.8408C287.14 51.8408 283.471 51 280.312 49.3184C277.203 47.6368 274.808 45.1653 273.127 41.904C271.445 38.5917 270.655 34.5405 270.757 29.7504C270.808 24.9094 271.751 20.8073 273.585 17.444C275.471 14.0808 278.044 11.5329 281.306 9.80032C284.567 8.06774 288.338 7.20146 292.618 7.20146C298.479 7.20146 303.014 8.47541 306.224 11.0233C309.435 13.5712 311.575 17.2657 312.645 22.1067L305.154 23.1768C304.39 19.9665 302.81 17.7243 300.415 16.4504C298.071 15.1764 295.472 14.5394 292.618 14.5394C287.726 14.5394 284.134 15.8643 281.841 18.5142C279.599 21.164 278.452 24.7056 278.401 29.1389C278.401 34.0309 279.7 37.8018 282.299 40.4517C284.898 43.0505 288.618 44.35 293.459 44.35C296.415 44.35 299.09 43.662 301.485 42.2862C303.88 40.8593 305.434 38.5917 306.148 35.4832H296.669V29.7504H313.486V51H308.212L306.453 43.5091H306.301C305.791 44.7831 304.899 46.0571 303.625 47.331C302.402 48.605 300.772 49.6751 298.733 50.5414C296.695 51.4077 294.224 51.8408 291.319 51.8408ZM34.1535 106H26.3569V62.9658H43.6317C48.4218 62.9658 52.1418 64.1633 54.7916 66.5584C57.4414 68.9534 58.7663 72.5714 58.7663 77.4125C58.7663 81.642 57.3904 84.9543 54.6387 87.3493C51.9379 89.7443 48.2689 90.9419 43.6317 90.9419H34.1535V106ZM42.5616 69.3101H34.1535V85.2091H42.5616C45.3134 85.2091 47.53 84.5466 49.2117 83.2217C50.8933 81.8968 51.7341 79.9094 51.7341 77.2596C51.7341 74.5588 50.8933 72.5714 49.2117 71.2975C47.581 69.9726 45.3643 69.3101 42.5616 69.3101ZM60.5512 106L74.31 62.9658H87.075L101.216 106H92.8842L89.2152 93.8465H72.4755L68.8065 106H60.5512ZM80.8071 66.2526L74.31 87.8079H87.3807L80.8071 66.2526ZM124.56 106.841C120.382 106.841 116.713 106 113.553 104.318C110.445 102.637 108.05 100.165 106.368 96.904C104.687 93.5917 103.897 89.5405 103.999 84.7504C104.05 79.9094 104.992 75.8073 106.827 72.444C108.712 69.0808 111.286 66.5329 114.547 64.8003C117.808 63.0677 121.579 62.2015 125.86 62.2015C131.72 62.2015 136.255 63.4754 139.466 66.0233C142.676 68.5712 144.816 72.2657 145.886 77.1067L138.395 78.1768C137.631 74.9665 136.051 72.7243 133.656 71.4504C131.312 70.1764 128.713 69.5394 125.86 69.5394C120.968 69.5394 117.375 70.8643 115.082 73.5142C112.84 76.164 111.693 79.7056 111.642 84.1389C111.642 89.0309 112.942 92.8018 115.541 95.4517C118.14 98.0505 121.859 99.35 126.701 99.35C129.656 99.35 132.331 98.662 134.726 97.2862C137.121 95.8593 138.676 93.5917 139.389 90.4832H129.911V84.7504H146.727V106H141.453L139.695 98.5091H139.542C139.032 99.7831 138.141 101.057 136.867 102.331C135.644 103.605 134.013 104.675 131.975 105.541C129.936 106.408 127.465 106.841 124.56 106.841ZM161.789 99.7321H185.561V106H154.069V62.9658H184.796V69.6923H161.789V81.005H179.446V87.4257H161.789V99.7321Z" fill="white"/>
<path d="M219 66L219.281 81.8094L221.666 66.1784L219.837 81.8842L224.284 66.7106L220.378 82.0324L226.808 67.587L220.894 82.2514L229.192 68.792L221.377 82.5373L231.395 70.304L221.817 82.8851L233.376 72.0962L222.207 83.2884L235.101 74.1364L222.54 83.7401L236.539 76.3884L222.81 84.2321L237.664 78.8118L223.011 84.7556L238.455 81.3636L223.141 85.3014L238.9 83.9981L223.198 85.8597L238.989 86.6683L223.179 86.4204L238.721 89.3266L223.086 86.9736L238.102 91.9255L222.919 87.5095L237.142 94.4187L222.683 88.0184L235.858 96.7616L222.381 88.4914L234.273 98.9126L222.019 88.9198L232.416 100.833L221.603 89.2962L230.319 102.489L221.14 89.6137L228.02 103.85L220.64 89.8667L225.56 104.893L220.11 90.0508L222.984 105.599L219.56 90.1625L220.336 105.955L219 90.2L217.664 105.955L218.44 90.1625L215.016 105.599L217.89 90.0508L212.44 104.893L217.36 89.8667L209.98 103.85L216.86 89.6137L207.681 102.489L216.397 89.2962L205.584 100.833L215.981 88.9198L203.727 98.9126L215.619 88.4914L202.142 96.7616L215.317 88.0184L200.858 94.4187L215.081 87.5095L199.898 91.9255L214.914 86.9736L199.279 89.3266L214.821 86.4204L199.011 86.6683L214.802 85.8597L199.1 83.9981L214.859 85.3014L199.545 81.3636L214.989 84.7556L200.336 78.8118L215.19 84.2321L201.461 76.3884L215.46 83.7401L202.899 74.1364L215.793 83.2884L204.624 72.0962L216.183 82.8851L206.605 70.304L216.623 82.5373L208.808 68.792L217.106 82.2514L211.192 67.587L217.622 82.0324L213.716 66.7106L218.163 81.8842L216.334 66.1784L218.719 81.8094L219 66Z" fill="#F63C12"/>
<rect x="22.2654" y="125" width="336.883" height="354.223" fill="#1D1D1D"/>
<path d="M95.048 344.973L99.1362 341.944L115.223 363.658L107.741 369.201L85.4961 354.737L85.419 354.795L100.22 374.773L96.1706 377.773L80.0834 356.059L87.0258 350.916L109.772 365.008L109.849 364.951L95.048 344.973ZM129.332 354.041C125.836 356.632 122.409 357.597 119.053 356.938C115.678 356.252 112.704 354.174 110.133 350.703C108.437 348.414 107.369 346.139 106.928 343.877C106.468 341.59 106.692 339.393 107.6 337.286C108.515 335.135 110.168 333.173 112.559 331.401C116.108 328.773 119.557 327.81 122.906 328.515C126.237 329.194 129.178 331.256 131.731 334.701C133.388 336.938 134.444 339.223 134.897 341.555C135.332 343.862 135.104 346.081 134.215 348.214C133.325 350.346 131.698 352.289 129.332 354.041ZM126.494 350.29C128.808 348.576 130.01 346.57 130.1 344.273C130.216 341.957 129.474 339.719 127.874 337.559C126.788 336.093 125.569 334.985 124.217 334.235C122.845 333.459 121.407 333.13 119.902 333.249C118.379 333.343 116.832 333.971 115.264 335.133C113.001 336.809 111.793 338.779 111.639 341.044C111.485 343.309 112.255 345.586 113.951 347.874C114.998 349.288 116.195 350.393 117.541 351.188C118.893 351.938 120.332 352.267 121.855 352.173C123.379 352.08 124.925 351.452 126.494 350.29ZM155.586 333.754L151.652 336.669L135.565 314.955L144.281 308.497C146.698 306.706 149.023 305.92 151.255 306.138C153.488 306.356 155.509 307.686 157.319 310.129C158.9 312.263 159.444 314.449 158.95 316.686C158.483 318.904 157.079 320.88 154.74 322.613L149.957 326.156L155.586 333.754ZM146.113 312.098L141.871 315.241L147.814 323.264L152.057 320.121C153.445 319.092 154.316 317.929 154.669 316.632C155.022 315.335 154.704 314.018 153.713 312.681C152.703 311.318 151.536 310.629 150.212 310.615C148.893 310.556 147.527 311.051 146.113 312.098ZM171.312 322.103L155.225 300.389L163.209 294.475C166.011 292.398 168.549 291.255 170.823 291.044C173.077 290.808 175.08 291.872 176.833 294.238C178.147 296.012 178.79 297.766 178.76 299.5C178.712 301.209 177.89 302.654 176.296 303.835C177.196 303.168 178.017 302.878 178.759 302.966C179.508 303.009 180.191 303.259 180.809 303.717C181.427 304.175 182.013 304.697 182.566 305.283C183.12 305.868 183.638 306.38 184.122 306.818C184.613 307.212 185.101 307.387 185.588 307.345C186.1 307.284 186.624 306.836 187.161 306.001L188.846 308.277C188.663 309.05 188.284 309.748 187.711 310.372C187.157 311.022 186.472 311.469 185.658 311.714C184.844 311.959 183.971 311.909 183.038 311.564C182.087 311.194 181.154 310.391 180.24 309.157C179.401 308.026 178.67 307.174 178.047 306.6C177.404 306.001 176.701 305.725 175.939 305.772C175.158 305.793 174.199 306.165 173.062 306.888C171.906 307.585 170.415 308.69 168.588 310.202L175.246 319.189L171.312 322.103ZM166.474 307.348L170.369 304.462C171.629 303.529 172.632 302.706 173.379 301.994C174.107 301.255 174.501 300.525 174.563 299.802C174.632 299.035 174.294 298.149 173.552 297.147C172.732 296.041 171.898 295.425 171.047 295.298C170.197 295.172 169.258 295.409 168.23 296.011C167.209 296.568 166.017 297.352 164.655 298.362L161.531 300.676L166.474 307.348ZM202.439 299.879C198.942 302.47 195.516 303.435 192.16 302.775C188.784 302.09 185.811 300.012 183.239 296.54C181.544 294.252 180.476 291.977 180.034 289.715C179.574 287.428 179.798 285.23 180.707 283.124C181.622 280.972 183.275 279.011 185.666 277.239C189.215 274.61 192.663 273.648 196.013 274.353C199.343 275.031 202.285 277.093 204.838 280.539C206.495 282.776 207.55 285.061 208.004 287.393C208.438 289.699 208.211 291.919 207.321 294.051C206.432 296.184 204.805 298.126 202.439 299.879ZM199.6 296.128C201.914 294.413 203.117 292.407 203.207 290.11C203.323 287.794 202.581 285.556 200.981 283.396C199.895 281.931 198.676 280.823 197.323 280.072C195.952 279.296 194.514 278.968 193.009 279.087C191.485 279.181 189.939 279.808 188.371 280.97C186.108 282.647 184.9 284.617 184.746 286.882C184.591 289.147 185.362 291.423 187.058 293.712C188.105 295.126 189.302 296.23 190.648 297.026C192 297.776 193.438 298.104 194.962 298.011C196.486 297.917 198.032 297.29 199.6 296.128ZM223.086 284.343C220.927 285.943 218.762 286.65 216.594 286.465C214.406 286.254 212.455 284.991 210.741 282.677L214.443 279.934C214.882 280.525 215.391 281.024 215.971 281.431C216.576 281.818 217.257 282.011 218.012 282.009C218.767 282.007 219.582 281.682 220.456 281.035C221.588 280.196 222.172 279.266 222.21 278.242C222.255 277.173 221.649 275.79 220.391 274.093L212.133 262.947L207.737 266.205L205.479 263.158L213.81 256.986L223.868 270.562C225.164 272.31 226.095 273.97 226.661 275.541C227.254 277.094 227.293 278.598 226.779 280.054C226.246 281.485 225.015 282.914 223.086 284.343ZM235.874 269.373L247.869 260.486L250.212 263.649L234.322 275.421L218.235 253.707L233.739 242.221L236.254 245.615L224.645 254.215L228.874 259.924L237.783 253.323L240.183 256.563L231.274 263.163L235.874 269.373ZM263.495 254.406C261.463 255.911 259.32 256.861 257.065 257.258C254.791 257.628 252.556 257.353 250.359 256.431C248.189 255.49 246.189 253.786 244.361 251.317C242.596 248.881 241.56 246.463 241.254 244.061C240.948 241.659 241.294 239.411 242.292 237.318C243.29 235.224 244.843 233.397 246.952 231.835C248.957 230.349 250.934 229.442 252.881 229.114C254.829 228.787 256.684 228.925 258.447 229.531C260.236 230.117 261.83 231.087 263.23 232.439L259.18 235.439C258.162 234.441 257.081 233.869 255.936 233.721C254.798 233.529 253.697 233.628 252.632 234.019C251.548 234.383 250.569 234.89 249.695 235.537C247.406 237.233 246.121 239.18 245.84 241.38C245.584 243.561 246.322 245.822 248.056 248.161C249.904 250.656 251.914 252.133 254.088 252.594C256.287 253.035 258.53 252.409 260.819 250.713C261.77 250.008 262.591 249.181 263.281 248.232C263.953 247.256 264.362 246.196 264.51 245.052C264.638 243.881 264.364 242.651 263.687 241.36L267.775 238.331C268.673 240.135 269.152 241.991 269.211 243.898C269.277 245.761 268.853 247.608 267.94 249.44C267.033 251.227 265.552 252.882 263.495 254.406ZM261.614 226.826L259.1 223.432L275.877 211.002L278.391 214.396L271.951 219.168L285.523 237.488L281.589 240.403L268.017 222.083L261.614 226.826Z" fill="#303030"/>
<path d="M13.2 214.259C13.2 214.872 13.0867 215.445 12.86 215.979C12.62 216.512 12.2533 216.945 11.76 217.279C11.2533 217.599 10.6 217.759 9.8 217.759V216.199C10.1067 216.199 10.4133 216.145 10.72 216.039C11.0133 215.932 11.26 215.745 11.46 215.479C11.66 215.199 11.76 214.805 11.76 214.299C11.76 213.672 11.5867 213.205 11.24 212.899C10.88 212.592 10.2533 212.439 9.36 212.439H3.04V214.699H1.74L1.74 210.779H9.12C9.97333 210.779 10.7067 210.885 11.32 211.099C11.92 211.299 12.3867 211.652 12.72 212.159C13.04 212.652 13.2 213.352 13.2 214.259ZM13.2 205.835C13.2 206.528 13.0733 207.082 12.82 207.495C12.5533 207.895 12.2067 208.195 11.78 208.395C11.3533 208.582 10.9 208.708 10.42 208.775C9.94 208.828 9.47333 208.855 9.02 208.855H4.82V207.215H9.02C9.5 207.215 9.94667 207.168 10.36 207.075C10.7733 206.982 11.1067 206.795 11.36 206.515C11.6 206.222 11.72 205.782 11.72 205.195C11.72 204.635 11.5933 204.202 11.34 203.895C11.0867 203.588 10.76 203.375 10.36 203.255C9.96 203.122 9.54 203.048 9.1 203.035L4.82 203.015V201.315H13V202.735L11.3 203.015V203.055C11.4733 203.108 11.7133 203.235 12.02 203.435C12.3133 203.635 12.5867 203.928 12.84 204.315C13.08 204.702 13.2 205.208 13.2 205.835ZM13 199.473H1.74L1.74 197.833H13V199.473ZM16.72 196.88H15.42V195.7C15.42 195.42 15.3533 195.187 15.22 195C15.1 194.813 14.7667 194.587 14.22 194.32L12.68 193.62L4.82 196.82V195.1L10.96 192.8L4.82 190.34V188.6L14.4 192.8C15.08 193.093 15.5867 193.36 15.92 193.6C16.2533 193.84 16.4667 194.107 16.56 194.4C16.6667 194.693 16.72 195.06 16.72 195.5V196.88ZM13.2 178.632C13.2 179.472 13.0867 180.159 12.86 180.692C12.62 181.226 12.3467 181.646 12.04 181.952C11.72 182.246 11.44 182.452 11.2 182.572C10.96 182.692 10.8333 182.752 10.82 182.752L10.44 181.132C10.4533 181.132 10.5267 181.092 10.66 181.012C10.78 180.932 10.9267 180.799 11.1 180.612C11.26 180.412 11.4067 180.152 11.54 179.832C11.66 179.512 11.72 179.112 11.72 178.632C11.72 177.592 11.2667 176.819 10.36 176.312C9.45333 175.792 8.12667 175.559 6.38 175.612C6.58 175.639 6.83333 175.732 7.14 175.892C7.43333 176.039 7.72667 176.252 8.02 176.532C8.31333 176.812 8.56 177.172 8.76 177.612C8.96 178.039 9.06 178.539 9.06 179.112C9.06 180.006 8.88 180.746 8.52 181.332C8.16 181.906 7.7 182.332 7.14 182.612C6.58 182.879 5.98667 182.999 5.36 182.972C4.72 182.932 4.12 182.746 3.56 182.412C3 182.079 2.54 181.592 2.18 180.952C1.82 180.312 1.64 179.526 1.64 178.592C1.64 177.459 1.91333 176.546 2.46 175.852C2.99333 175.159 3.70667 174.666 4.6 174.372C5.49333 174.066 6.46667 173.939 7.52 173.992C8.57333 174.032 9.53333 174.206 10.4 174.512C11.2533 174.819 11.9333 175.306 12.44 175.972C12.9467 176.626 13.2 177.512 13.2 178.632ZM8.02 178.772C8.02 177.906 7.76 177.226 7.24 176.732C6.70667 176.226 6.04667 175.926 5.26 175.832C4.5 176.019 3.93333 176.359 3.56 176.852C3.18667 177.346 3 177.932 3 178.612C3 179.319 3.16667 179.892 3.5 180.332C3.83333 180.759 4.25333 181.052 4.76 181.212C5.25333 181.372 5.75333 181.392 6.26 181.272C6.75333 181.139 7.17333 180.866 7.52 180.452C7.85333 180.039 8.02 179.479 8.02 178.772ZM14.9 171.991H13.74V171.571C13.74 171.237 13.6733 171.017 13.54 170.911C13.42 170.804 13.24 170.751 13 170.751C13.0267 171.177 12.9467 171.484 12.76 171.671C12.5733 171.844 12.32 171.931 12 171.931C11.72 171.931 11.4867 171.864 11.3 171.731C11.1 171.584 11 171.317 11 170.931C11 170.624 11.1 170.391 11.3 170.231C11.4867 170.057 11.84 169.971 12.36 169.971C13.08 169.971 13.68 170.091 14.16 170.331C14.6533 170.557 14.9 170.964 14.9 171.551V171.991ZM13 163.579H11.62C11.6067 163.566 11.5 163.392 11.3 163.059C11.1 162.712 10.8267 162.272 10.48 161.739C10.12 161.206 9.72 160.652 9.28 160.079C8.82667 159.492 8.34667 158.952 7.84 158.459C7.33333 157.966 6.83333 157.592 6.34 157.339C5.7 157.032 5.13333 156.939 4.64 157.059C4.13333 157.166 3.74 157.432 3.46 157.859C3.16667 158.272 3.02 158.786 3.02 159.399C3.03333 160.159 3.28 160.766 3.76 161.219C4.24 161.672 4.96 161.859 5.92 161.779L5.72 163.319C4.86667 163.386 4.14 163.252 3.54 162.919C2.92667 162.572 2.46 162.079 2.14 161.439C1.80667 160.799 1.64 160.059 1.64 159.219C1.64 158.499 1.77333 157.859 2.04 157.299C2.29333 156.739 2.65333 156.292 3.12 155.959C3.57333 155.612 4.09333 155.419 4.68 155.379C5.26667 155.339 5.88667 155.479 6.54 155.799C7.03333 156.052 7.52 156.406 8 156.859C8.46667 157.299 8.90667 157.786 9.32 158.319C9.73333 158.852 10.1067 159.372 10.44 159.879C10.76 160.372 11.02 160.806 11.22 161.179C11.4067 161.539 11.52 161.766 11.56 161.859V155.159H13V163.579ZM13.28 148.962C13.28 150.588 12.7533 151.788 11.7 152.562C10.6333 153.322 9.2 153.702 7.4 153.702C6.21333 153.702 5.18667 153.542 4.32 153.222C3.44 152.888 2.76 152.375 2.28 151.682C1.78667 150.975 1.54 150.068 1.54 148.962C1.54 147.882 1.78 146.995 2.26 146.302C2.74 145.595 3.42 145.075 4.3 144.742C5.18 144.395 6.21333 144.222 7.4 144.222C8.56 144.222 9.58667 144.395 10.48 144.742C11.36 145.075 12.0467 145.595 12.54 146.302C13.0333 146.995 13.28 147.882 13.28 148.962ZM11.88 148.982C11.88 147.875 11.4933 147.068 10.72 146.562C9.94667 146.042 8.84 145.782 7.4 145.782C5.97333 145.782 4.87333 146.035 4.1 146.542C3.31333 147.048 2.92 147.862 2.92 148.982C2.92 150.062 3.3 150.862 4.06 151.382C4.80667 151.888 5.92 152.142 7.4 152.142C8.82667 152.142 9.93333 151.895 10.72 151.402C11.4933 150.908 11.88 150.102 11.88 148.982ZM13 142.876H11.62C11.6067 142.862 11.5 142.689 11.3 142.356C11.1 142.009 10.8267 141.569 10.48 141.036C10.12 140.502 9.72 139.949 9.28 139.376C8.82667 138.789 8.34667 138.249 7.84 137.756C7.33333 137.262 6.83333 136.889 6.34 136.636C5.7 136.329 5.13333 136.236 4.64 136.356C4.13333 136.462 3.74 136.729 3.46 137.156C3.16667 137.569 3.02 138.082 3.02 138.696C3.03333 139.456 3.28 140.062 3.76 140.516C4.24 140.969 4.96 141.156 5.92 141.076L5.72 142.616C4.86667 142.682 4.14 142.549 3.54 142.216C2.92667 141.869 2.46 141.376 2.14 140.736C1.80667 140.096 1.64 139.356 1.64 138.516C1.64 137.796 1.77333 137.156 2.04 136.596C2.29333 136.036 2.65333 135.589 3.12 135.256C3.57333 134.909 4.09333 134.716 4.68 134.676C5.26667 134.636 5.88667 134.776 6.54 135.096C7.03333 135.349 7.52 135.702 8 136.156C8.46667 136.596 8.90667 137.082 9.32 137.616C9.73333 138.149 10.1067 138.669 10.44 139.176C10.76 139.669 11.02 140.102 11.22 140.476C11.4067 140.836 11.52 141.062 11.56 141.156V134.456H13V142.876ZM13 132.759H11.62C11.6067 132.745 11.5 132.572 11.3 132.239C11.1 131.892 10.8267 131.452 10.48 130.919C10.12 130.385 9.72 129.832 9.28 129.259C8.82667 128.672 8.34667 128.132 7.84 127.639C7.33333 127.145 6.83333 126.772 6.34 126.519C5.7 126.212 5.13333 126.119 4.64 126.239C4.13333 126.345 3.74 126.612 3.46 127.039C3.16667 127.452 3.02 127.965 3.02 128.579C3.03333 129.339 3.28 129.945 3.76 130.399C4.24 130.852 4.96 131.039 5.92 130.959L5.72 132.499C4.86667 132.565 4.14 132.432 3.54 132.099C2.92667 131.752 2.46 131.259 2.14 130.619C1.80667 129.979 1.64 129.239 1.64 128.399C1.64 127.679 1.77333 127.039 2.04 126.479C2.29333 125.919 2.65333 125.472 3.12 125.139C3.57333 124.792 4.09333 124.599 4.68 124.559C5.26667 124.519 5.88667 124.659 6.54 124.979C7.03333 125.232 7.52 125.585 8 126.039C8.46667 126.479 8.90667 126.965 9.32 127.499C9.73333 128.032 10.1067 128.552 10.44 129.059C10.76 129.552 11.02 129.985 11.22 130.359C11.4067 130.719 11.52 130.945 11.56 131.039V124.339H13V132.759Z" fill="white"/>
</svg>
